<?xml version="1.0" encoding="utf-8"?>
<!-- Generator: Adobe Illustrator 19.0.0, SVG Export Plug-In . SVG Version: 6.00 Build 0)  -->
<svg version="1.1" id="Layer_1" xmlns="http://www.w3.org/2000/svg" xmlns:xlink="http://www.w3.org/1999/xlink" x="0px" y="0px"
	 viewBox="0 0 214 48.4" style="enable-background:new 0 0 214 48.4;" xml:space="preserve">
<style type="text/css">
	.st0{fill:#FFFFFF;}
	.st1{opacity:0.5;fill:#FFFFFF;}
</style>
<g id="XMLID_706_">
	<g id="XMLID_1064_">
		<path id="XMLID_1065_" class="st0" d="M53,22.9h-1.1c-0.2,0-0.4,0-0.5-0.1c-0.1-0.1-0.1-0.2-0.1-0.5v-2c0-0.4,0.2-0.6,0.6-0.6H53
			c0.2,0,0.3-0.1,0.3-0.3v-2.7c0-0.4,0.2-0.6,0.6-0.6h2.4c0.4,0,0.6,0.2,0.6,0.6v2.7c0,0.2,0.1,0.3,0.3,0.3h2.2
			c0.4,0,0.6,0.2,0.6,0.6v2c0,0.2,0,0.4-0.1,0.4c-0.1,0.1-0.2,0.1-0.5,0.1h-2.2c-0.2,0-0.3,0.1-0.3,0.3v6.3c0,0.6,0.1,1,0.4,1.3
			c0.3,0.3,0.7,0.4,1.3,0.4h1.1c0.4,0,0.6,0.2,0.6,0.6v2c0,0.2,0,0.4-0.1,0.4c-0.1,0.1-0.2,0.1-0.5,0.1H58c-1.5,0-2.7-0.4-3.5-1.2
			s-1.2-2-1.2-3.4v-6.5C53.3,23,53.2,22.9,53,22.9z"/>
		<path id="XMLID_1067_" class="st0" d="M62.9,17.3v-2.5c0-0.4,0.2-0.6,0.6-0.6H66c0.4,0,0.6,0.2,0.6,0.5v2.5c0,0.4-0.2,0.6-0.6,0.6
			h-2.5C63.1,17.8,62.9,17.6,62.9,17.3z M62.9,33.8V20.3c0-0.4,0.2-0.6,0.6-0.6H66c0.4,0,0.6,0.2,0.6,0.6v13.4c0,0.2,0,0.4-0.1,0.5
			c-0.1,0.1-0.2,0.1-0.4,0.1h-2.5C63.1,34.4,62.9,34.2,62.9,33.8z"/>
		<path id="XMLID_1074_" class="st0" d="M72.9,34.4h-2.4c-0.4,0-0.6-0.2-0.6-0.6V20.3c0-0.4,0.2-0.6,0.6-0.6h2.4
			c0.4,0,0.6,0.2,0.6,0.6v0.9h0.1c0.2-0.5,0.6-0.8,1.2-1.1s1.2-0.4,1.9-0.4h0.8c1.7,0,2.9,0.6,3.6,1.8c0.7-1.2,1.8-1.8,3.4-1.8h0.8
			c1.5,0,2.6,0.4,3.3,1.2c0.8,0.8,1.1,2,1.1,3.5v9.4c0,0.4-0.2,0.6-0.6,0.6h-2.4c-0.4,0-0.6-0.2-0.6-0.6v-9.2c0-0.6-0.1-1-0.4-1.3
			c-0.2-0.3-0.7-0.4-1.3-0.4h-0.7c-1.3,0-2,0.7-2,2.2v8.7c0,0.4-0.2,0.6-0.6,0.6h-2.4c-0.4,0-0.6-0.2-0.6-0.6v-9.2
			c0-0.6-0.1-1-0.4-1.3s-0.7-0.4-1.3-0.4h-0.9c-1.3,0-2,0.7-2,2.2v8.7C73.5,34.2,73.3,34.4,72.9,34.4z"/>
		<path id="XMLID_1077_" class="st0" d="M95.8,34.4h-2.4c-0.4,0-0.6-0.2-0.6-0.6v-19c0-0.4,0.2-0.6,0.6-0.6h2.4
			c0.4,0,0.6,0.2,0.6,0.6v19C96.4,34.2,96.2,34.4,95.8,34.4z M101.2,19.7h2.8c0.2,0,0.4,0.1,0.5,0.2c0.1,0.1,0,0.3-0.1,0.5l-3.8,6.3
			v0.1l4,6.8c0.1,0.2,0.1,0.4,0,0.5s-0.3,0.2-0.5,0.2h-2.5c-0.3,0-0.6,0-0.7-0.1c-0.1-0.1-0.3-0.2-0.4-0.5l-3.6-6.4
			c-0.2-0.3-0.2-0.6,0-0.9l3.4-6.1C100.4,19.9,100.7,19.7,101.2,19.7z"/>
		<path id="XMLID_1093_" class="st0" d="M111.5,34.4h-0.7c-1.5,0-2.7-0.4-3.5-1.2s-1.2-2-1.2-3.5v-5.3c0-1.5,0.4-2.7,1.2-3.5
			c0.8-0.8,2-1.2,3.5-1.2h6.6c0.4,0,0.6,0.2,0.6,0.6v13.4c0,0.4-0.2,0.6-0.6,0.6H115c-0.4,0-0.6-0.2-0.6-0.6v-0.9h-0.1
			c-0.2,0.5-0.6,0.9-1.1,1.2C112.6,34.2,112,34.4,111.5,34.4z M114.4,29v-5.8c0-0.2-0.1-0.3-0.3-0.3h-2.7c-0.6,0-1,0.1-1.3,0.4
			c-0.2,0.3-0.4,0.7-0.4,1.3v4.9c0,0.6,0.1,1,0.4,1.3c0.2,0.3,0.7,0.4,1.3,0.4h1.1C113.7,31.2,114.4,30.5,114.4,29z"/>
		<path id="XMLID_1115_" class="st0" d="M124.2,34.4h-2.4c-0.4,0-0.6-0.2-0.6-0.6V20.3c0-0.4,0.2-0.6,0.6-0.6h2.4
			c0.4,0,0.6,0.2,0.6,0.6v0.9h0.1c0.2-0.5,0.6-0.8,1.2-1.1s1.2-0.4,1.9-0.4h0.8c1.7,0,2.9,0.6,3.6,1.8c0.7-1.2,1.8-1.8,3.4-1.8h0.8
			c1.5,0,2.6,0.4,3.3,1.2c0.8,0.8,1.1,2,1.1,3.5v9.4c0,0.4-0.2,0.6-0.6,0.6H138c-0.4,0-0.6-0.2-0.6-0.6v-9.2c0-0.6-0.1-1-0.4-1.3
			c-0.2-0.3-0.7-0.4-1.3-0.4H135c-1.3,0-2,0.7-2,2.2v8.7c0,0.4-0.2,0.6-0.6,0.6H130c-0.4,0-0.6-0.2-0.6-0.6v-9.2
			c0-0.6-0.1-1-0.4-1.3s-0.7-0.4-1.3-0.4h-0.9c-1.3,0-2,0.7-2,2.2v8.7C124.8,34.2,124.6,34.4,124.2,34.4z"/>
		<path id="XMLID_1120_" class="st0" d="M149.4,34.4h-0.9c-1.5,0-2.6-0.4-3.3-1.2s-1.1-2-1.1-3.5v-9.4c0-0.4,0.2-0.6,0.6-0.6h2.4
			c0.4,0,0.6,0.2,0.6,0.6v9.2c0,0.6,0.1,1,0.4,1.3s0.7,0.4,1.3,0.4h1.1c1.3,0,2-0.7,2-2.2v-8.7c0-0.4,0.2-0.6,0.6-0.6h2.4
			c0.4,0,0.6,0.2,0.6,0.6v13.4c0,0.4-0.2,0.6-0.6,0.6h-2.4c-0.4,0-0.6-0.2-0.6-0.6v-0.9h-0.1c-0.2,0.5-0.6,0.9-1.1,1.2
			C150.5,34.2,150,34.4,149.4,34.4z"/>
		<path id="XMLID_1132_" class="st1" d="M162.3,30.2v3.5c0,0.4-0.2,0.6-0.5,0.6h-2.6c-0.4,0-0.6-0.2-0.6-0.6v-3.5
			c0-0.4,0.2-0.6,0.6-0.6h2.6C162.1,29.7,162.3,29.9,162.3,30.2z"/>
		<path id="XMLID_1135_" class="st1" d="M174.3,31.8v2c0,0.2,0,0.4-0.1,0.4c-0.1,0.1-0.2,0.1-0.5,0.1h-4.3c-1.5,0-2.7-0.4-3.5-1.2
			s-1.2-2-1.2-3.5v-5.3c0-1.5,0.4-2.7,1.2-3.5c0.8-0.8,2-1.2,3.5-1.2h4.3c0.4,0,0.6,0.2,0.6,0.6v2c0,0.2,0,0.4-0.1,0.4
			c-0.1,0.1-0.2,0.1-0.5,0.1H170c-0.6,0-1,0.1-1.3,0.4s-0.4,0.7-0.4,1.3v4.9c0,0.6,0.1,1,0.4,1.3s0.7,0.4,1.3,0.4h3.7
			C174.1,31.2,174.3,31.4,174.3,31.8z"/>
		<path id="XMLID_1137_" class="st1" d="M183.8,34.4h-2.6c-1.5,0-2.7-0.4-3.5-1.2s-1.2-2-1.2-3.5v-5.3c0-1.5,0.4-2.7,1.2-3.5
			c0.8-0.8,2-1.2,3.5-1.2h2.6c1.5,0,2.7,0.4,3.5,1.2c0.8,0.8,1.2,2,1.2,3.5v5.3c0,1.5-0.4,2.6-1.2,3.5S185.3,34.4,183.8,34.4z
			 M181.8,31.2h1.5c0.6,0,1-0.1,1.3-0.4c0.3-0.2,0.4-0.7,0.4-1.3v-5.1c0-0.6-0.1-1-0.4-1.3c-0.3-0.2-0.7-0.4-1.3-0.4h-1.5
			c-0.6,0-1,0.1-1.3,0.4c-0.2,0.2-0.4,0.7-0.4,1.3v5.1c0,0.6,0.1,1,0.4,1.3C180.7,31.1,181.1,31.2,181.8,31.2z"/>
		<path id="XMLID_1140_" class="st1" d="M194.4,34.4H192c-0.4,0-0.6-0.2-0.6-0.6V20.3c0-0.4,0.2-0.6,0.6-0.6h2.4
			c0.4,0,0.6,0.2,0.6,0.6v0.9h0.1c0.2-0.5,0.6-0.8,1.2-1.1s1.2-0.4,1.9-0.4h0.8c1.7,0,2.9,0.6,3.6,1.8c0.7-1.2,1.8-1.8,3.4-1.8h0.8
			c1.5,0,2.6,0.4,3.3,1.2c0.8,0.8,1.1,2,1.1,3.5v9.4c0,0.4-0.2,0.6-0.6,0.6h-2.4c-0.4,0-0.6-0.2-0.6-0.6v-9.2c0-0.6-0.1-1-0.4-1.3
			c-0.2-0.3-0.7-0.4-1.3-0.4h-0.7c-1.3,0-2,0.7-2,2.2v8.7c0,0.4-0.2,0.6-0.6,0.6h-2.4c-0.4,0-0.6-0.2-0.6-0.6v-9.2
			c0-0.6-0.1-1-0.4-1.3s-0.7-0.4-1.3-0.4H197c-1.3,0-2,0.7-2,2.2v8.7C195,34.2,194.8,34.4,194.4,34.4z"/>
	</g>
	<path id="XMLID_707_" class="st0" d="M28.2,23.8v1.1c0,0.3,0,0.8,0,1v10.9c0,3.3-2.6,5.8-5.8,5.8l0,0c-3.1,0-5.8-2.5-5.8-5.8v-4.6
		v-8.4v-0.6c0-1.1,0.9-2,2.1-2l0,0c1.1,0,2,0.9,2,2v0.6v1.1v1.1v1.8v1v1.8v1.1V32v1.5v2.9c0,0.9,0.8,1.6,1.6,1.6l0,0
		c0.9,0,1.8-0.8,1.8-1.6v-2.9v-1.8v-1.1v-1.8v-1v-1.8v-1.1v-1.1c0,0,0.8-5.5-5.6-5.5h-6.8c-3.1,0-5.8-2.6-5.8-5.8l0,0
		c0-3.3,2.6-5.8,5.8-5.8h21.3c3.3,0,5.8,2.5,5.8,5.8l0,0c0,3.1-2.5,5.8-5.8,5.8h-0.9h-1.5h-0.5c-1.3,0-2.1-0.9-2.1-2.1l0,0
		c0-1,0.8-1.9,1.8-2l0,0h0.3h2H33c0.9,0,1.6-0.8,1.6-1.6l0,0c0-0.9-0.8-1.6-1.6-1.6h-3.8H27h-1.4h-2.3h-1.5h-2.3h-1.5h-2.3H12
		c-0.9,0-1.8,0.8-1.8,1.6l0,0c0,0.9,0.8,1.6,1.8,1.6h3.8h2.3h0.9c0,0,4.1-0.4,6.8,2.5C27.7,18.8,28.1,21.3,28.2,23.8L28.2,23.8z"/>
</g>
</svg>
