<?xml version="1.0" encoding="utf-8"?>
<!-- Generator: Adobe Illustrator 19.0.0, SVG Export Plug-In . SVG Version: 6.00 Build 0)  -->
<svg version="1.1" id="Layer_1" xmlns="http://www.w3.org/2000/svg" xmlns:xlink="http://www.w3.org/1999/xlink" x="0px" y="0px"
	 viewBox="-323.5 351.9 165.5 48.4" style="enable-background:new -323.5 351.9 165.5 48.4;" xml:space="preserve">
<style type="text/css">
	.st0{fill:#FFFFFF;}
	.st1{opacity:0.5;fill:#FFFFFF;enable-background:new    ;}
</style>
<g id="XMLID_706_">
	<g id="XMLID_1064_">
		<path id="XMLID_1065_" class="st0" d="M-319,279.5h-1.1c-0.2,0-0.4,0-0.5-0.1s-0.1-0.2-0.1-0.5v-2c0-0.4,0.2-0.6,0.6-0.6h1.1
			c0.2,0,0.3-0.1,0.3-0.3v-2.7c0-0.4,0.2-0.6,0.6-0.6h2.4c0.4,0,0.6,0.2,0.6,0.6v2.7c0,0.2,0.1,0.3,0.3,0.3h2.2
			c0.4,0,0.6,0.2,0.6,0.6v2c0,0.2,0,0.4-0.1,0.4c-0.1,0.1-0.2,0.1-0.5,0.1h-2.2c-0.2,0-0.3,0.1-0.3,0.3v6.3c0,0.6,0.1,1,0.4,1.3
			c0.3,0.3,0.7,0.4,1.3,0.4h1.1c0.4,0,0.6,0.2,0.6,0.6v2c0,0.2,0,0.4-0.1,0.4c-0.1,0.1-0.2,0.1-0.5,0.1h-1.7c-1.5,0-2.7-0.4-3.5-1.2
			c-0.8-0.8-1.2-2-1.2-3.4v-6.5C-318.7,279.6-318.8,279.5-319,279.5z"/>
		<path id="XMLID_1067_" class="st0" d="M-309.1,273.9v-2.5c0-0.4,0.2-0.6,0.6-0.6h2.5c0.4,0,0.6,0.2,0.6,0.5v2.5
			c0,0.4-0.2,0.6-0.6,0.6h-2.5C-308.9,274.4-309.1,274.2-309.1,273.9z M-309.1,290.4v-13.5c0-0.4,0.2-0.6,0.6-0.6h2.5
			c0.4,0,0.6,0.2,0.6,0.6v13.4c0,0.2,0,0.4-0.1,0.5s-0.2,0.1-0.4,0.1h-2.5C-308.9,291-309.1,290.8-309.1,290.4z"/>
		<path id="XMLID_1074_" class="st0" d="M-299.1,291h-2.4c-0.4,0-0.6-0.2-0.6-0.6v-13.5c0-0.4,0.2-0.6,0.6-0.6h2.4
			c0.4,0,0.6,0.2,0.6,0.6v0.9h0.1c0.2-0.5,0.6-0.8,1.2-1.1c0.6-0.3,1.2-0.4,1.9-0.4h0.8c1.7,0,2.9,0.6,3.6,1.8
			c0.7-1.2,1.8-1.8,3.4-1.8h0.8c1.5,0,2.6,0.4,3.3,1.2c0.8,0.8,1.1,2,1.1,3.5v9.4c0,0.4-0.2,0.6-0.6,0.6h-2.4
			c-0.4,0-0.6-0.2-0.6-0.6v-9.2c0-0.6-0.1-1-0.4-1.3c-0.2-0.3-0.7-0.4-1.3-0.4h-0.7c-1.3,0-2,0.7-2,2.2v8.7c0,0.4-0.2,0.6-0.6,0.6
			h-2.4c-0.4,0-0.6-0.2-0.6-0.6v-9.2c0-0.6-0.1-1-0.4-1.3c-0.3-0.3-0.7-0.4-1.3-0.4h-0.9c-1.3,0-2,0.7-2,2.2v8.7
			C-298.5,290.8-298.7,291-299.1,291z"/>
		<path id="XMLID_1077_" class="st0" d="M-276.2,291h-2.4c-0.4,0-0.6-0.2-0.6-0.6v-19c0-0.4,0.2-0.6,0.6-0.6h2.4
			c0.4,0,0.6,0.2,0.6,0.6v19C-275.6,290.8-275.8,291-276.2,291z M-270.8,276.3h2.8c0.2,0,0.4,0.1,0.5,0.2s0,0.3-0.1,0.5l-3.8,6.3
			v0.1l4,6.8c0.1,0.2,0.1,0.4,0,0.5c-0.1,0.1-0.3,0.2-0.5,0.2h-2.5c-0.3,0-0.6,0-0.7-0.1c-0.1-0.1-0.3-0.2-0.4-0.5l-3.6-6.4
			c-0.2-0.3-0.2-0.6,0-0.9l3.4-6.1C-271.6,276.5-271.3,276.3-270.8,276.3z"/>
		<path id="XMLID_1093_" class="st0" d="M-260.5,291h-0.7c-1.5,0-2.7-0.4-3.5-1.2c-0.8-0.8-1.2-2-1.2-3.5V281c0-1.5,0.4-2.7,1.2-3.5
			c0.8-0.8,2-1.2,3.5-1.2h6.6c0.4,0,0.6,0.2,0.6,0.6v13.4c0,0.4-0.2,0.6-0.6,0.6h-2.4c-0.4,0-0.6-0.2-0.6-0.6v-0.9h-0.1
			c-0.2,0.5-0.6,0.9-1.1,1.2C-259.4,290.8-260,291-260.5,291z M-257.6,285.6v-5.8c0-0.2-0.1-0.3-0.3-0.3h-2.7c-0.6,0-1,0.1-1.3,0.4
			c-0.2,0.3-0.4,0.7-0.4,1.3v4.9c0,0.6,0.1,1,0.4,1.3c0.2,0.3,0.7,0.4,1.3,0.4h1.1C-258.3,287.8-257.6,287.1-257.6,285.6z"/>
		<path id="XMLID_1115_" class="st0" d="M-247.8,291h-2.4c-0.4,0-0.6-0.2-0.6-0.6v-13.5c0-0.4,0.2-0.6,0.6-0.6h2.4
			c0.4,0,0.6,0.2,0.6,0.6v0.9h0.1c0.2-0.5,0.6-0.8,1.2-1.1c0.6-0.3,1.2-0.4,1.9-0.4h0.8c1.7,0,2.9,0.6,3.6,1.8
			c0.7-1.2,1.8-1.8,3.4-1.8h0.8c1.5,0,2.6,0.4,3.3,1.2c0.8,0.8,1.1,2,1.1,3.5v9.4c0,0.4-0.2,0.6-0.6,0.6h-2.4
			c-0.4,0-0.6-0.2-0.6-0.6v-9.2c0-0.6-0.1-1-0.4-1.3c-0.2-0.3-0.7-0.4-1.3-0.4h-0.7c-1.3,0-2,0.7-2,2.2v8.7c0,0.4-0.2,0.6-0.6,0.6
			h-2.4c-0.4,0-0.6-0.2-0.6-0.6v-9.2c0-0.6-0.1-1-0.4-1.3c-0.3-0.3-0.7-0.4-1.3-0.4h-0.9c-1.3,0-2,0.7-2,2.2v8.7
			C-247.2,290.8-247.4,291-247.8,291z"/>
		<path id="XMLID_1120_" class="st0" d="M-222.6,291h-0.9c-1.5,0-2.6-0.4-3.3-1.2s-1.1-2-1.1-3.5v-9.4c0-0.4,0.2-0.6,0.6-0.6h2.4
			c0.4,0,0.6,0.2,0.6,0.6v9.2c0,0.6,0.1,1,0.4,1.3c0.3,0.3,0.7,0.4,1.3,0.4h1.1c1.3,0,2-0.7,2-2.2v-8.7c0-0.4,0.2-0.6,0.6-0.6h2.4
			c0.4,0,0.6,0.2,0.6,0.6v13.4c0,0.4-0.2,0.6-0.6,0.6h-2.4c-0.4,0-0.6-0.2-0.6-0.6v-0.9h-0.1c-0.2,0.5-0.6,0.9-1.1,1.2
			C-221.5,290.8-222,291-222.6,291z"/>
		<path id="XMLID_1132_" class="st1" d="M-209.7,286.8v3.5c0,0.4-0.2,0.6-0.5,0.6h-2.6c-0.4,0-0.6-0.2-0.6-0.6v-3.5
			c0-0.4,0.2-0.6,0.6-0.6h2.6C-209.9,286.3-209.7,286.5-209.7,286.8z"/>
		<path id="XMLID_1135_" class="st1" d="M-197.7,288.4v2c0,0.2,0,0.4-0.1,0.4c-0.1,0.1-0.2,0.1-0.5,0.1h-4.3c-1.5,0-2.7-0.4-3.5-1.2
			c-0.8-0.8-1.2-2-1.2-3.5v-5.3c0-1.5,0.4-2.7,1.2-3.5c0.8-0.8,2-1.2,3.5-1.2h4.3c0.4,0,0.6,0.2,0.6,0.6v2c0,0.2,0,0.4-0.1,0.4
			c-0.1,0.1-0.2,0.1-0.5,0.1h-3.7c-0.6,0-1,0.1-1.3,0.4c-0.3,0.3-0.4,0.7-0.4,1.3v4.9c0,0.6,0.1,1,0.4,1.3c0.3,0.3,0.7,0.4,1.3,0.4
			h3.7C-197.9,287.8-197.7,288-197.7,288.4z"/>
		<path id="XMLID_1137_" class="st1" d="M-188.2,291h-2.6c-1.5,0-2.7-0.4-3.5-1.2s-1.2-2-1.2-3.5V281c0-1.5,0.4-2.7,1.2-3.5
			c0.8-0.8,2-1.2,3.5-1.2h2.6c1.5,0,2.7,0.4,3.5,1.2c0.8,0.8,1.2,2,1.2,3.5v5.3c0,1.5-0.4,2.6-1.2,3.5S-186.7,291-188.2,291z
			 M-190.2,287.8h1.5c0.6,0,1-0.1,1.3-0.4c0.3-0.2,0.4-0.7,0.4-1.3V281c0-0.6-0.1-1-0.4-1.3c-0.3-0.2-0.7-0.4-1.3-0.4h-1.5
			c-0.6,0-1,0.1-1.3,0.4c-0.2,0.2-0.4,0.7-0.4,1.3v5.1c0,0.6,0.1,1,0.4,1.3C-191.3,287.7-190.9,287.8-190.2,287.8z"/>
		<path id="XMLID_1140_" class="st1" d="M-177.6,291h-2.4c-0.4,0-0.6-0.2-0.6-0.6v-13.5c0-0.4,0.2-0.6,0.6-0.6h2.4
			c0.4,0,0.6,0.2,0.6,0.6v0.9h0.1c0.2-0.5,0.6-0.8,1.2-1.1c0.6-0.3,1.2-0.4,1.9-0.4h0.8c1.7,0,2.9,0.6,3.6,1.8
			c0.7-1.2,1.8-1.8,3.4-1.8h0.8c1.5,0,2.6,0.4,3.3,1.2c0.8,0.8,1.1,2,1.1,3.5v9.4c0,0.4-0.2,0.6-0.6,0.6h-2.4
			c-0.4,0-0.6-0.2-0.6-0.6v-9.2c0-0.6-0.1-1-0.4-1.3c-0.2-0.3-0.7-0.4-1.3-0.4h-0.7c-1.3,0-2,0.7-2,2.2v8.7c0,0.4-0.2,0.6-0.6,0.6
			h-2.4c-0.4,0-0.6-0.2-0.6-0.6v-9.2c0-0.6-0.1-1-0.4-1.3c-0.3-0.3-0.7-0.4-1.3-0.4h-0.9c-1.3,0-2,0.7-2,2.2v8.7
			C-177,290.8-177.2,291-177.6,291z"/>
	</g>
	<path id="XMLID_707_" class="st0" d="M-343.8,280.4v1.1c0,0.3,0,0.8,0,1v10.9c0,3.3-2.6,5.8-5.8,5.8l0,0c-3.1,0-5.8-2.5-5.8-5.8
		v-4.6v-8.4v-0.6c0-1.1,0.9-2,2.1-2l0,0c1.1,0,2,0.9,2,2v0.6v1.1v1.1v1.8v1v1.8v1.1v0.3v1.5v2.9c0,0.9,0.8,1.6,1.6,1.6l0,0
		c0.9,0,1.8-0.8,1.8-1.6v-2.9v-1.8v-1.1v-1.8v-1v-1.8v-1.1v-1.1c0,0,0.8-5.5-5.6-5.5h-6.8c-3.1,0-5.8-2.6-5.8-5.8l0,0
		c0-3.3,2.6-5.8,5.8-5.8h21.3c3.3,0,5.8,2.5,5.8,5.8l0,0c0,3.1-2.5,5.8-5.8,5.8h-0.9h-1.5h-0.5c-1.3,0-2.1-0.9-2.1-2.1l0,0
		c0-1,0.8-1.9,1.8-2l0,0h0.3h2h0.9c0.9,0,1.6-0.8,1.6-1.6l0,0c0-0.9-0.8-1.6-1.6-1.6h-3.8h-2.2h-1.4h-2.3h-1.5h-2.3h-1.5h-2.3h-3.7
		c-0.9,0-1.8,0.8-1.8,1.6l0,0c0,0.9,0.8,1.6,1.8,1.6h3.8h2.3h0.9c0,0,4.1-0.4,6.8,2.5C-344.3,275.4-343.9,277.9-343.8,280.4
		L-343.8,280.4z"/>
</g>
<g id="XMLID_1_">
	<g id="XMLID_3_">
		<path id="XMLID_14_" class="st0" d="M-319,374.8h-1.1c-0.2,0-0.4,0-0.5-0.1c-0.1-0.1-0.1-0.2-0.1-0.5v-2c0-0.4,0.2-0.6,0.6-0.6
			h1.1c0.2,0,0.3-0.1,0.3-0.3v-2.7c0-0.4,0.2-0.6,0.6-0.6h2.4c0.4,0,0.6,0.2,0.6,0.6v2.7c0,0.2,0.1,0.3,0.3,0.3h2.2
			c0.4,0,0.6,0.2,0.6,0.6v2c0,0.2,0,0.4-0.1,0.4c-0.1,0.1-0.2,0.1-0.5,0.1h-2.2c-0.2,0-0.3,0.1-0.3,0.3v6.3c0,0.6,0.1,1,0.4,1.3
			c0.3,0.3,0.7,0.4,1.3,0.4h1.1c0.4,0,0.6,0.2,0.6,0.6v2c0,0.2,0,0.4-0.1,0.4c-0.1,0.1-0.2,0.1-0.5,0.1h-1.7c-1.5,0-2.7-0.4-3.5-1.2
			c-0.8-0.8-1.2-2-1.2-3.4V375C-318.7,374.9-318.8,374.8-319,374.8z"/>
		<path id="XMLID_13_" class="st0" d="M-309.1,369.2v-2.5c0-0.4,0.2-0.6,0.6-0.6h2.5c0.4,0,0.6,0.2,0.6,0.5v2.5
			c0,0.4-0.2,0.6-0.6,0.6h-2.5C-308.9,369.7-309.1,369.5-309.1,369.2z M-309.1,385.7v-13.5c0-0.4,0.2-0.6,0.6-0.6h2.5
			c0.4,0,0.6,0.2,0.6,0.6v13.4c0,0.2,0,0.4-0.1,0.5c-0.1,0.1-0.2,0.1-0.4,0.1h-2.5C-308.9,386.3-309.1,386.1-309.1,385.7z"/>
		<path id="XMLID_12_" class="st0" d="M-299.1,386.3h-2.4c-0.4,0-0.6-0.2-0.6-0.6v-13.5c0-0.4,0.2-0.6,0.6-0.6h2.4
			c0.4,0,0.6,0.2,0.6,0.6v0.9h0.1c0.2-0.5,0.6-0.8,1.2-1.1c0.6-0.3,1.2-0.4,1.9-0.4h0.8c1.7,0,2.9,0.6,3.6,1.8
			c0.7-1.2,1.8-1.8,3.4-1.8h0.8c1.5,0,2.6,0.4,3.3,1.2c0.8,0.8,1.1,2,1.1,3.5v9.4c0,0.4-0.2,0.6-0.6,0.6h-2.4
			c-0.4,0-0.6-0.2-0.6-0.6v-9.2c0-0.6-0.1-1-0.4-1.3c-0.2-0.3-0.7-0.4-1.3-0.4h-0.7c-1.3,0-2,0.7-2,2.2v8.7c0,0.4-0.2,0.6-0.6,0.6
			h-2.4c-0.4,0-0.6-0.2-0.6-0.6v-9.2c0-0.6-0.1-1-0.4-1.3c-0.3-0.3-0.7-0.4-1.3-0.4h-0.9c-1.3,0-2,0.7-2,2.2v8.7
			C-298.5,386.1-298.7,386.3-299.1,386.3z"/>
		<path id="XMLID_11_" class="st0" d="M-276.2,386.3h-2.4c-0.4,0-0.6-0.2-0.6-0.6v-19c0-0.4,0.2-0.6,0.6-0.6h2.4
			c0.4,0,0.6,0.2,0.6,0.6v19C-275.6,386.1-275.8,386.3-276.2,386.3z M-270.8,371.6h2.8c0.2,0,0.4,0.1,0.5,0.2s0,0.3-0.1,0.5
			l-3.8,6.3v0.1l4,6.8c0.1,0.2,0.1,0.4,0,0.5s-0.3,0.2-0.5,0.2h-2.5c-0.3,0-0.6,0-0.7-0.1s-0.3-0.2-0.4-0.5l-3.6-6.4
			c-0.2-0.3-0.2-0.6,0-0.9l3.4-6.1C-271.6,371.8-271.3,371.6-270.8,371.6z"/>
		<path id="XMLID_10_" class="st0" d="M-260.5,386.3h-0.7c-1.5,0-2.7-0.4-3.5-1.2c-0.8-0.8-1.2-2-1.2-3.5v-5.3
			c0-1.5,0.4-2.7,1.2-3.5c0.8-0.8,2-1.2,3.5-1.2h6.6c0.4,0,0.6,0.2,0.6,0.6v13.4c0,0.4-0.2,0.6-0.6,0.6h-2.4c-0.4,0-0.6-0.2-0.6-0.6
			v-0.9h-0.1c-0.2,0.5-0.6,0.9-1.1,1.2C-259.4,386.1-260,386.3-260.5,386.3z M-257.6,380.9v-5.8c0-0.2-0.1-0.3-0.3-0.3h-2.7
			c-0.6,0-1,0.1-1.3,0.4c-0.2,0.3-0.4,0.7-0.4,1.3v4.9c0,0.6,0.1,1,0.4,1.3c0.2,0.3,0.7,0.4,1.3,0.4h1.1
			C-258.3,383.1-257.6,382.4-257.6,380.9z"/>
		<path id="XMLID_9_" class="st0" d="M-247.8,386.3h-2.4c-0.4,0-0.6-0.2-0.6-0.6v-13.5c0-0.4,0.2-0.6,0.6-0.6h2.4
			c0.4,0,0.6,0.2,0.6,0.6v0.9h0.1c0.2-0.5,0.6-0.8,1.2-1.1c0.6-0.3,1.2-0.4,1.9-0.4h0.8c1.7,0,2.9,0.6,3.6,1.8
			c0.7-1.2,1.8-1.8,3.4-1.8h0.8c1.5,0,2.6,0.4,3.3,1.2c0.8,0.8,1.1,2,1.1,3.5v9.4c0,0.4-0.2,0.6-0.6,0.6h-2.4
			c-0.4,0-0.6-0.2-0.6-0.6v-9.2c0-0.6-0.1-1-0.4-1.3c-0.2-0.3-0.7-0.4-1.3-0.4h-0.7c-1.3,0-2,0.7-2,2.2v8.7c0,0.4-0.2,0.6-0.6,0.6
			h-2.4c-0.4,0-0.6-0.2-0.6-0.6v-9.2c0-0.6-0.1-1-0.4-1.3c-0.3-0.3-0.7-0.4-1.3-0.4h-0.9c-1.3,0-2,0.7-2,2.2v8.7
			C-247.2,386.1-247.4,386.3-247.8,386.3z"/>
		<path id="XMLID_8_" class="st0" d="M-222.6,386.3h-0.9c-1.5,0-2.6-0.4-3.3-1.2c-0.7-0.8-1.1-2-1.1-3.5v-9.4c0-0.4,0.2-0.6,0.6-0.6
			h2.4c0.4,0,0.6,0.2,0.6,0.6v9.2c0,0.6,0.1,1,0.4,1.3c0.3,0.3,0.7,0.4,1.3,0.4h1.1c1.3,0,2-0.7,2-2.2v-8.7c0-0.4,0.2-0.6,0.6-0.6
			h2.4c0.4,0,0.6,0.2,0.6,0.6v13.4c0,0.4-0.2,0.6-0.6,0.6h-2.4c-0.4,0-0.6-0.2-0.6-0.6v-0.9h-0.1c-0.2,0.5-0.6,0.9-1.1,1.2
			C-221.5,386.1-222,386.3-222.6,386.3z"/>
		<path id="XMLID_7_" class="st1" d="M-209.7,382.1v3.5c0,0.4-0.2,0.6-0.5,0.6h-2.6c-0.4,0-0.6-0.2-0.6-0.6v-3.5
			c0-0.4,0.2-0.6,0.6-0.6h2.6C-209.9,381.6-209.7,381.8-209.7,382.1z"/>
		<path id="XMLID_6_" class="st1" d="M-197.7,383.7v2c0,0.2,0,0.4-0.1,0.4c-0.1,0.1-0.2,0.1-0.5,0.1h-4.3c-1.5,0-2.7-0.4-3.5-1.2
			c-0.8-0.8-1.2-2-1.2-3.5v-5.3c0-1.5,0.4-2.7,1.2-3.5c0.8-0.8,2-1.2,3.5-1.2h4.3c0.4,0,0.6,0.2,0.6,0.6v2c0,0.2,0,0.4-0.1,0.4
			c-0.1,0.1-0.2,0.1-0.5,0.1h-3.7c-0.6,0-1,0.1-1.3,0.4c-0.3,0.3-0.4,0.7-0.4,1.3v4.9c0,0.6,0.1,1,0.4,1.3c0.3,0.3,0.7,0.4,1.3,0.4
			h3.7C-197.9,383.1-197.7,383.3-197.7,383.7z"/>
		<path id="XMLID_5_" class="st1" d="M-188.2,386.3h-2.6c-1.5,0-2.7-0.4-3.5-1.2c-0.8-0.8-1.2-2-1.2-3.5v-5.3c0-1.5,0.4-2.7,1.2-3.5
			c0.8-0.8,2-1.2,3.5-1.2h2.6c1.5,0,2.7,0.4,3.5,1.2c0.8,0.8,1.2,2,1.2,3.5v5.3c0,1.5-0.4,2.6-1.2,3.5
			C-185.5,386-186.7,386.3-188.2,386.3z M-190.2,383.1h1.5c0.6,0,1-0.1,1.3-0.4c0.3-0.2,0.4-0.7,0.4-1.3v-5.1c0-0.6-0.1-1-0.4-1.3
			c-0.3-0.2-0.7-0.4-1.3-0.4h-1.5c-0.6,0-1,0.1-1.3,0.4c-0.2,0.2-0.4,0.7-0.4,1.3v5.1c0,0.6,0.1,1,0.4,1.3
			C-191.3,383-190.9,383.1-190.2,383.1z"/>
		<path id="XMLID_4_" class="st1" d="M-177.6,386.3h-2.4c-0.4,0-0.6-0.2-0.6-0.6v-13.5c0-0.4,0.2-0.6,0.6-0.6h2.4
			c0.4,0,0.6,0.2,0.6,0.6v0.9h0.1c0.2-0.5,0.6-0.8,1.2-1.1c0.6-0.3,1.2-0.4,1.9-0.4h0.8c1.7,0,2.9,0.6,3.6,1.8
			c0.7-1.2,1.8-1.8,3.4-1.8h0.8c1.5,0,2.6,0.4,3.3,1.2c0.8,0.8,1.1,2,1.1,3.5v9.4c0,0.4-0.2,0.6-0.6,0.6h-2.4
			c-0.4,0-0.6-0.2-0.6-0.6v-9.2c0-0.6-0.1-1-0.4-1.3c-0.2-0.3-0.7-0.4-1.3-0.4h-0.7c-1.3,0-2,0.7-2,2.2v8.7c0,0.4-0.2,0.6-0.6,0.6
			h-2.4c-0.4,0-0.6-0.2-0.6-0.6v-9.2c0-0.6-0.1-1-0.4-1.3c-0.3-0.3-0.7-0.4-1.3-0.4h-0.9c-1.3,0-2,0.7-2,2.2v8.7
			C-177,386.1-177.2,386.3-177.6,386.3z"/>
	</g>
</g>
</svg>
