<?xml version="1.0" encoding="utf-8"?>
<!-- Generator: Adobe Illustrator 19.0.0, SVG Export Plug-In . SVG Version: 6.00 Build 0)  -->
<svg version="1.1" id="Layer_1" xmlns="http://www.w3.org/2000/svg" xmlns:xlink="http://www.w3.org/1999/xlink" x="0px" y="0px"
	 viewBox="0 0 100 100" style="enable-background:new 0 0 100 100;" xml:space="preserve">
<style type="text/css">
	.st0{fill:#FBBD00;}
	.st1{fill:#0F9D58;}
	.st2{fill:#31AA52;}
	.st3{fill:#3C79E6;}
	.st4{fill:#CF2D48;}
	.st5{fill:#EB4132;}
</style>
<g>
	<path id="XMLID_72_" class="st0" d="M26.9,50c0-4.3,1.2-8.3,3.3-11.8V23.5H15.5c-5.8,7.6-9,16.8-9,26.5s3.2,18.9,9,26.5h14.7V61.8
		C28.1,58.3,26.9,54.3,26.9,50z"/>
	<path id="XMLID_71_" class="st1" d="M50,73.1L39.8,83.3L50,93.5c9.7,0,18.9-3.2,26.5-9V69.9H61.8C58.3,71.9,54.3,73.1,50,73.1z"/>
	<path id="XMLID_70_" class="st2" d="M30.1,61.8L15.5,76.5c1.2,1.5,2.4,2.9,3.8,4.3C27.5,89,38.4,93.5,50,93.5V73.1
		C41.6,73.1,34.2,68.6,30.1,61.8L30.1,61.8z"/>
	<path id="XMLID_69_" class="st3" d="M93.5,50c0-2.6-0.2-5.3-0.7-7.9L92.4,40H50v20.4h20.6c-2,4-5.1,7.2-8.8,9.5l14.6,14.6
		c1.5-1.2,2.9-2.4,4.3-3.8C89,72.5,93.5,61.6,93.5,50z"/>
	<path id="XMLID_68_" class="st4" d="M66.3,33.7l1.8,1.8L82.6,21l-1.8-1.8C72.5,11,61.6,6.5,50,6.5L39.8,16.7L50,26.9
		C56.2,26.9,62,29.3,66.3,33.7z"/>
	<path id="XMLID_1_" class="st5" d="M50,26.9V6.5c-11.6,0-22.5,4.5-30.8,12.7c-1.4,1.4-2.6,2.8-3.8,4.3l14.7,14.7
		C34.2,31.4,41.6,26.9,50,26.9z"/>
</g>
</svg>
