<?xml version="1.0" encoding="utf-8"?>
<!-- Generator: Adobe Illustrator 19.0.0, SVG Export Plug-In . SVG Version: 6.00 Build 0)  -->
<svg version="1.1" id="Layer_1" xmlns="http://www.w3.org/2000/svg" xmlns:xlink="http://www.w3.org/1999/xlink" x="0px" y="0px"
	 viewBox="0 0 100 100" style="enable-background:new 0 0 100 100;" xml:space="preserve">
<style type="text/css">
	.st0{fill:#FFFFFF;}
</style>
<path id="XMLID_3_" class="st0" d="M33.5,86.2c33.6,0,52-27.8,52-52c0-0.8,0-1.6-0.1-2.4c3.6-2.6,6.7-5.8,9.1-9.5
	c-3.3,1.5-6.8,2.4-10.5,2.9c3.8-2.3,6.7-5.8,8-10.1c-3.5,2.1-7.4,3.6-11.6,4.4c-3.3-3.5-8.1-5.8-13.3-5.8C57,13.8,48.9,22,48.9,32.1
	c0,1.4,0.2,2.8,0.5,4.2c-15.2-0.8-28.6-8-37.6-19.1c-1.6,2.7-2.5,5.8-2.5,9.2c0,6.3,3.2,11.9,8.1,15.2c-3-0.1-5.8-0.9-8.3-2.3
	c0,0.1,0,0.2,0,0.2c0,8.8,6.3,16.2,14.6,17.9c-1.5,0.4-3.1,0.6-4.8,0.6c-1.2,0-2.3-0.1-3.4-0.3c2.3,7.3,9.1,12.5,17.1,12.7
	c-6.2,4.9-14.1,7.8-22.7,7.8c-1.5,0-2.9-0.1-4.4-0.3C13.6,83.1,23.2,86.2,33.5,86.2"/>
</svg>
