<?xml version="1.0" encoding="utf-8"?>
<!-- Generator: Adobe Illustrator 19.0.0, SVG Export Plug-In . SVG Version: 6.00 Build 0)  -->
<svg version="1.1" id="Layer_1" xmlns="http://www.w3.org/2000/svg" xmlns:xlink="http://www.w3.org/1999/xlink" x="0px" y="0px"
	 viewBox="-293 385 24 24" style="enable-background:new -293 385 24 24;" xml:space="preserve">
<style type="text/css">
	.st0{fill:#FFFFFF;}
</style>
<g>
	<path class="st0" d="M-213.3,394.6h-3.6c0.9-1.2,1.3-2.8,1-4.3c-0.4-1.7-1.6-2.8-2.2-3.3c-0.2-0.2-0.5-0.2-0.7-0.1
		c-0.2,0.1-0.4,0.4-0.4,0.6c0,0.3-0.2,0.7-0.5,0.8c-0.1,0.1-0.3,0.1-0.4,0.1c0.4-1.4,0.3-2.6-0.1-3.6c-0.7-1.5-2.1-2-2.2-2
		c-0.2-0.1-0.4,0-0.5,0c-0.2,0.1-0.3,0.2-0.3,0.4c0,0-0.7,2.3-2.6,4c-1,0.8-1.6,1.8-1.9,2.9c-0.1,0.5-0.3,1.3-0.1,2.3
		c0.1,0.8,0.5,1.5,1,2.2h-3.5c-1.1,0-2,0.9-2,2v7.2c0,1.1,0.9,2,2,2h17.2c1.1,0,2-0.9,2-2v-7.2
		C-211.3,395.5-212.2,394.6-213.3,394.6z M-225.7,394c-1.2-1.4-1-3-0.8-3.6c0.2-0.8,0.7-1.5,1.5-2.2c1.5-1.3,2.3-2.9,2.7-3.9
		c0.3,0.2,0.6,0.5,0.8,1c0.4,0.9,0.3,2-0.2,3.3c-0.1,0.3,0,0.7,0.4,0.9c0.2,0.1,1.1,0.4,2.1,0c0.4-0.2,0.8-0.5,1-0.9
		c0.4,0.5,0.8,1.1,1,1.9c0.3,1.5-0.3,3-1.5,4h-0.6c0.1-0.7-0.1-1.4-0.5-2l-1.4-1.9c-0.1-0.2-0.3-0.3-0.5-0.3s-0.4,0.1-0.5,0.3
		l-1.4,1.9c-0.4,0.6-0.6,1.3-0.5,2h-0.7C-225.3,394.4-225.5,394.2-225.7,394L-225.7,394z M-223,394.6c-0.1-0.3-0.1-0.8,0.2-1.1
		l0.9-1.2l0.9,1.2c0.3,0.4,0.3,0.8,0.2,1.1H-223z M-212.6,403.8c0,0.4-0.3,0.7-0.7,0.7h-17.2c-0.4,0-0.7-0.3-0.7-0.7v-7.2
		c0-0.4,0.3-0.7,0.7-0.7h17.2c0.4,0,0.7,0.3,0.7,0.7V403.8z"/>
	<path class="st0" d="M-227.1,401.8C-227.1,401.8-227.1,401.8-227.1,401.8c-0.3,0-0.6,0-0.9,0V398c0-0.4-0.3-0.7-0.7-0.7
		s-0.7,0.3-0.7,0.7v4.5c0,0.3,0.2,0.6,0.6,0.7c0,0,0.1,0,0.6,0c0.2,0,0.6,0,1.1,0c0.4,0,0.7-0.3,0.7-0.7
		C-226.4,402.1-226.7,401.8-227.1,401.8L-227.1,401.8z"/>
	<path class="st0" d="M-224.8,397.3c-0.4,0-0.7,0.3-0.7,0.7v4.5c0,0.4,0.3,0.7,0.7,0.7c0.4,0,0.7-0.3,0.7-0.7V398
		C-224.1,397.6-224.4,397.3-224.8,397.3z"/>
	<path class="st0" d="M-215.2,398.6c0.4,0,0.7-0.3,0.7-0.7s-0.3-0.7-0.7-0.7h-1.9c-0.4,0-0.7,0.3-0.7,0.7v4.5c0,0.4,0.3,0.7,0.7,0.7
		h1.9c0.4,0,0.7-0.3,0.7-0.7c0-0.4-0.3-0.7-0.7-0.7h-1.2v-0.9h1.1c0.4,0,0.7-0.3,0.7-0.7c0-0.4-0.3-0.7-0.7-0.7h-1.1v-0.9H-215.2z"
		/>
	<path class="st0" d="M-219.1,397.3c-0.4-0.1-0.7,0.1-0.9,0.4l-0.9,2.8l-1-2.9c-0.1-0.4-0.5-0.5-0.9-0.4c-0.4,0.1-0.5,0.5-0.4,0.9
		l1.5,4.5c0,0,0,0,0,0c0.1,0.3,0.4,0.5,0.7,0.5c0,0,0,0,0,0c0.3,0,0.6-0.2,0.7-0.5c0,0,0,0,0,0l1.5-4.4
		C-218.6,397.8-218.8,397.4-219.1,397.3L-219.1,397.3z"/>
</g>
<g>
	<path class="st0" d="M-289,399.4C-289,399.4-289,399.4-289,399.4c-0.5,0-1,0-1.4,0v-6c0-0.6-0.5-1.1-1.1-1.1
		c-0.6,0-1.1,0.5-1.1,1.1v7c0,0.5,0.4,0.9,0.9,1c0.1,0,0.1,0,0.9,0c0.4,0,0.9,0,1.7,0c0.6,0,1-0.5,1-1.1
		C-287.9,399.9-288.4,399.4-289,399.4L-289,399.4z"/>
	<path class="st0" d="M-285.5,392.4c-0.6,0-1.1,0.5-1.1,1.1v7c0,0.6,0.5,1.1,1.1,1.1s1.1-0.5,1.1-1.1v-7
		C-284.4,392.9-284.9,392.4-285.5,392.4z"/>
	<path class="st0" d="M-270.6,394.5c0.6,0,1.1-0.5,1.1-1.1c0-0.6-0.5-1.1-1.1-1.1h-3c-0.6,0-1.1,0.5-1.1,1.1v7
		c0,0.6,0.5,1.1,1.1,1.1h3c0.6,0,1.1-0.5,1.1-1.1s-0.5-1.1-1.1-1.1h-1.9v-1.4h1.7c0.6,0,1.1-0.5,1.1-1.1s-0.5-1.1-1.1-1.1h-1.7v-1.4
		H-270.6z"/>
	<path class="st0" d="M-276.7,392.5c-0.6-0.2-1.1,0.1-1.3,0.7l-1.5,4.4l-1.5-4.4c-0.2-0.5-0.8-0.8-1.3-0.6c-0.5,0.2-0.8,0.8-0.6,1.3
		l2.4,6.9c0,0,0,0,0,0c0.2,0.5,0.6,0.8,1.1,0.8h0c0.5,0,1-0.3,1.1-0.8c0,0,0,0,0,0l2.3-6.9C-275.8,393.3-276.1,392.7-276.7,392.5z"
		/>
</g>
</svg>
