<?xml version="1.0" encoding="utf-8"?>
<!-- Generator: Adobe Illustrator 19.0.0, SVG Export Plug-In . SVG Version: 6.00 Build 0)  -->
<svg version="1.1" id="Layer_1" xmlns="http://www.w3.org/2000/svg" xmlns:xlink="http://www.w3.org/1999/xlink" x="0px" y="0px"
	 viewBox="-264.9 385 24 24" style="enable-background:new -264.9 385 24 24;" xml:space="preserve">
<style type="text/css">
	.st0{fill:#FFFFFF;}
</style>
<g>
	<path class="st0" d="M-245.4,397.2h-3.1c0.8-1.1,1.1-2.4,0.9-3.8c-0.3-1.5-1.4-2.5-2-2.9c-0.2-0.1-0.4-0.2-0.6-0.1
		c-0.2,0.1-0.3,0.3-0.3,0.6c0,0.3-0.2,0.6-0.5,0.7c-0.1,0.1-0.2,0.1-0.4,0.1c0.3-1.2,0.3-2.3-0.1-3.2c-0.6-1.3-1.9-1.7-1.9-1.8
		c-0.2-0.1-0.3,0-0.5,0c-0.1,0.1-0.2,0.2-0.3,0.4c0,0-0.6,2-2.2,3.5c-0.8,0.7-1.4,1.6-1.6,2.5c-0.1,0.5-0.2,1.2-0.1,2
		c0.1,0.7,0.4,1.3,0.8,1.9h-3.1c-1,0-1.8,0.8-1.8,1.8v6.3c0,1,0.8,1.8,1.8,1.8h15c1,0,1.8-0.8,1.8-1.8V399
		C-243.6,398-244.4,397.2-245.4,397.2z M-256.2,396.7c-1.1-1.2-0.9-2.6-0.7-3.1c0.2-0.7,0.6-1.3,1.3-1.9c1.3-1.1,2-2.6,2.4-3.4
		c0.2,0.2,0.5,0.5,0.7,0.9c0.4,0.8,0.3,1.7-0.1,2.9c-0.1,0.3,0,0.6,0.3,0.8c0.2,0.1,1,0.4,1.8,0c0.4-0.2,0.7-0.4,0.9-0.7
		c0.4,0.4,0.7,0.9,0.9,1.6c0.3,1.3-0.2,2.7-1.3,3.5h-0.6c0.1-0.6-0.1-1.2-0.5-1.7l-1.2-1.6c-0.1-0.1-0.3-0.2-0.5-0.2
		s-0.4,0.1-0.5,0.2l-1.2,1.6c-0.4,0.5-0.5,1.1-0.4,1.7h-0.6C-255.9,397.1-256.1,396.9-256.2,396.7L-256.2,396.7z M-253.9,397.2
		c-0.1-0.3-0.1-0.7,0.2-1l0.8-1l0.8,1c0.2,0.3,0.3,0.7,0.2,1H-253.9z M-244.8,405.3c0,0.3-0.3,0.6-0.6,0.6h-15
		c-0.3,0-0.6-0.3-0.6-0.6V399c0-0.3,0.3-0.6,0.6-0.6h15c0.3,0,0.6,0.3,0.6,0.6V405.3z"/>
	<path class="st0" d="M-257.4,403.5C-257.4,403.5-257.4,403.5-257.4,403.5c-0.3,0-0.6,0-0.8,0v-3.4c0-0.3-0.3-0.6-0.6-0.6
		c-0.3,0-0.6,0.3-0.6,0.6v3.9c0,0.3,0.2,0.5,0.5,0.6c0,0,0.1,0,0.5,0c0.2,0,0.5,0,1,0c0.3,0,0.6-0.3,0.6-0.6
		C-256.8,403.8-257.1,403.5-257.4,403.5L-257.4,403.5z"/>
	<path class="st0" d="M-255.5,399.6c-0.3,0-0.6,0.3-0.6,0.6v3.9c0,0.3,0.3,0.6,0.6,0.6s0.6-0.3,0.6-0.6v-3.9
		C-254.9,399.9-255.1,399.6-255.5,399.6z"/>
	<path class="st0" d="M-247,400.8c0.3,0,0.6-0.3,0.6-0.6c0-0.3-0.3-0.6-0.6-0.6h-1.7c-0.3,0-0.6,0.3-0.6,0.6v3.9
		c0,0.3,0.3,0.6,0.6,0.6h1.7c0.3,0,0.6-0.3,0.6-0.6c0-0.3-0.3-0.6-0.6-0.6h-1.1v-0.8h0.9c0.3,0,0.6-0.3,0.6-0.6
		c0-0.3-0.3-0.6-0.6-0.6h-0.9v-0.8H-247z"/>
	<path class="st0" d="M-250.5,399.6c-0.3-0.1-0.6,0.1-0.7,0.4l-0.8,2.5l-0.9-2.5c-0.1-0.3-0.4-0.5-0.8-0.4c-0.3,0.1-0.5,0.4-0.4,0.8
		l1.3,3.9c0,0,0,0,0,0c0.1,0.3,0.4,0.5,0.6,0.5c0,0,0,0,0,0c0.3,0,0.5-0.2,0.6-0.5c0,0,0,0,0,0l1.3-3.9
		C-250,400.1-250.2,399.7-250.5,399.6L-250.5,399.6z"/>
</g>
<g>
	<path class="st0" d="M-289,399.4C-289,399.4-289,399.4-289,399.4c-0.5,0-1,0-1.4,0v-6c0-0.6-0.5-1.1-1.1-1.1s-1.1,0.5-1.1,1.1v7
		c0,0.5,0.4,0.9,0.9,1c0.1,0,0.1,0,0.9,0c0.4,0,0.9,0,1.7,0c0.6,0,1-0.5,1-1.1C-287.9,399.9-288.4,399.4-289,399.4L-289,399.4z"/>
	<path class="st0" d="M-285.5,392.4c-0.6,0-1.1,0.5-1.1,1.1v7c0,0.6,0.5,1.1,1.1,1.1s1.1-0.5,1.1-1.1v-7
		C-284.4,392.9-284.9,392.4-285.5,392.4z"/>
	<path class="st0" d="M-270.6,394.5c0.6,0,1.1-0.5,1.1-1.1c0-0.6-0.5-1.1-1.1-1.1h-3c-0.6,0-1.1,0.5-1.1,1.1v7
		c0,0.6,0.5,1.1,1.1,1.1h3c0.6,0,1.1-0.5,1.1-1.1s-0.5-1.1-1.1-1.1h-1.9v-1.4h1.7c0.6,0,1.1-0.5,1.1-1.1s-0.5-1.1-1.1-1.1h-1.7v-1.4
		H-270.6z"/>
	<path class="st0" d="M-276.7,392.5c-0.6-0.2-1.1,0.1-1.3,0.7l-1.5,4.4l-1.5-4.4c-0.2-0.5-0.8-0.8-1.3-0.6c-0.5,0.2-0.8,0.8-0.6,1.3
		l2.4,6.9c0,0,0,0,0,0c0.2,0.5,0.6,0.8,1.1,0.8h0c0.5,0,1-0.3,1.1-0.8c0,0,0,0,0,0l2.3-6.9C-275.8,393.3-276.1,392.7-276.7,392.5z"
		/>
</g>
</svg>
