<svg id="Capa_1" enable-background="new 0 0 512 512" height="512" viewBox="0 0 512 512" width="512" xmlns="http://www.w3.org/2000/svg"><g><path d="m146 230h160c14.702 0 27.306-9.116 32.482-21.989l40.81 20.405c2.117 1.059 4.415 1.583 6.707 1.583 2.743 0 5.479-.751 7.887-2.24 4.423-2.733 7.114-7.561 7.114-12.76v-119.999c0-5.199-2.691-10.027-7.114-12.76-4.422-2.733-9.944-2.982-14.594-.657l-40.81 20.405c-4.893-12.169-16.426-20.971-30.093-21.898 1.686-4.72 2.611-9.798 2.611-15.09 0-24.813-20.187-45-45-45-8.422 0-16.308 2.331-23.056 6.374-9.673-15.804-27.096-26.374-46.944-26.374-30.327 0-55 24.673-55 55 0 9 2.187 17.493 6.035 25h-1.035c-19.299 0-35 15.701-35 35v80c0 19.299 15.701 35 35 35zm225-39.271-30-15v-41.459l30-15zm-105-140.729c8.271 0 15 6.729 15 15s-6.729 15-15 15-15-6.729-15-15 6.729-15 15-15zm-95 5c0-13.785 11.215-25 25-25s25 11.215 25 25-11.215 25-25 25-25-11.215-25-25zm-30 60c0-2.757 2.243-5 5-5h160c2.757 0 5 2.243 5 5v10 60 10c0 2.757-2.243 5-5 5h-160c-2.757 0-5-2.243-5-5z"/><path d="m446 262h-380c-24.813 0-45 20.187-45 45v160c0 24.813 20.187 45 45 45h380c24.813 0 45-20.187 45-45v-160c0-24.813-20.187-45-45-45zm15 205c0 8.271-6.729 15-15 15h-380c-8.271 0-15-6.729-15-15v-160c0-8.271 6.729-15 15-15h380c8.271 0 15 6.729 15 15z"/><path d="m141.886 421.916c-.028 0-.058 0-.086 0-6.784.038-13.934.066-19.933.078v-84.994c0-8.284-6.716-15-15-15s-15 6.716-15 15v99.916c0 7.306 5.264 13.549 12.464 14.784 1.08.185 1.798.308 12.97.308 5.387 0 13.205-.028 24.667-.092 8.284-.046 14.962-6.8 14.916-15.084-.046-8.256-6.753-14.916-14.998-14.916z"/><path d="m191.889 322c-8.284 0-15 6.716-15 15v100c0 8.284 6.716 15 15 15s15-6.716 15-15v-100c0-8.284-6.716-15-15-15z"/><path d="m405.133 352c8.284 0 15-6.716 15-15s-6.716-15-15-15h-42.136c-8.284 0-15 6.716-15 15v100c0 8.284 6.716 15 15 15h42.136c8.284 0 15-6.716 15-15s-6.716-15-15-15h-27.136v-20h24.029c8.284 0 15-6.716 15-15s-6.716-15-15-15h-24.029v-20z"/><path d="m317.724 322.949c-7.864-2.614-16.352 1.645-18.964 9.506l-20.816 62.665-21.882-63.039c-2.717-7.827-11.267-11.97-19.09-9.251-7.826 2.716-11.968 11.263-9.252 19.089l34.19 98.499c.012.033.023.066.035.099 2.442 6.881 8.968 11.484 16.262 11.484h.113c7.34-.048 13.859-4.749 16.225-11.698.012-.035.023-.069.035-.104l32.65-98.286c2.612-7.862-1.644-16.353-9.506-18.964z"/></g></svg>