<?xml version="1.0" encoding="utf-8"?>
<!-- Generator: Adobe Illustrator 19.0.0, SVG Export Plug-In . SVG Version: 6.00 Build 0)  -->
<svg version="1.1" id="Layer_1" xmlns="http://www.w3.org/2000/svg" xmlns:xlink="http://www.w3.org/1999/xlink" x="0px" y="0px"
	 viewBox="0 0 385 212" style="enable-background:new 0 0 385 212;" xml:space="preserve">
<style type="text/css">
	.st0{clip-path:url(#XMLID_15_);}
	.st1{opacity:0.3;fill:url(#XMLID_16_);}
	.st2{opacity:0.5;fill:url(#XMLID_17_);}
</style>
<g id="XMLID_243_">
	<defs>
		<rect id="XMLID_242_" x="5.9" y="-0.1" width="378.8" height="212.1"/>
	</defs>
	<clipPath id="XMLID_15_">
		<use xlink:href="#XMLID_242_"  style="overflow:visible;"/>
	</clipPath>
	<g id="XMLID_239_" class="st0">
		<linearGradient id="XMLID_16_" gradientUnits="userSpaceOnUse" x1="-19.723" y1="414.6555" x2="356.463" y2="-153.6255">
			<stop  offset="0" style="stop-color:#EC1866"/>
			<stop  offset="1" style="stop-color:#033C62"/>
		</linearGradient>
		<path id="XMLID_241_" class="st1" d="M13.4-0.6c0,0-4.1,69.2,89.1,59.2s97.7,78.7,99.1,91.6c8.3,76.3,122.8,68.2,143.7,7.4
			S434,94.4,434,94.4V-0.3L13.4-0.6z"/>
		
			<linearGradient id="XMLID_17_" gradientUnits="userSpaceOnUse" x1="141.5569" y1="-16300.3584" x2="570.7971" y2="-16120.9541" gradientTransform="matrix(1 0 0 1 -123.6458 16225.5078)">
			<stop  offset="0" style="stop-color:#EC1866"/>
			<stop  offset="1" style="stop-color:#033C62"/>
		</linearGradient>
		<path id="XMLID_240_" class="st2" d="M62.9-5.4c0,0,9.7,73.7,96.1,58.3s108.4-1.3,125.2,8.3s48.9,21.3,81,18.7
			c32-2.7,29.9-80.5,29.9-80.5l-5.1-6.5L62.9-5.4z"/>
	</g>
</g>
</svg>
