<?xml version="1.0" encoding="utf-8"?>
<!-- Generator: Adobe Illustrator 19.0.0, SVG Export Plug-In . SVG Version: 6.00 Build 0)  -->
<svg version="1.1" id="Layer_1" xmlns="http://www.w3.org/2000/svg" xmlns:xlink="http://www.w3.org/1999/xlink" x="0px" y="0px"
	 viewBox="-160 327.7 289.7 139.3" style="enable-background:new -160 327.7 289.7 139.3;" xml:space="preserve">
<style type="text/css">
	.st0{fill:url(#XMLID_2_);}
	.st1{fill:url(#XMLID_3_);}
</style>
<linearGradient id="XMLID_2_" gradientUnits="userSpaceOnUse" x1="-20.3749" y1="324.6944" x2="-8.3767" y2="500.6691">
	<stop  offset="0" style="stop-color:#EC1866"/>
	<stop  offset="1" style="stop-color:#033C62"/>
</linearGradient>
<path id="XMLID_11_" class="st0" d="M-156.4,469.2c0,0-2.7-46.3,61-39.6s66.8-52.6,67.8-61.3c5.7-51,83.8-45.6,98.1-5
	s60.5,42.4,60.5,42.4V469L-156.4,469.2z"/>
<linearGradient id="XMLID_3_" gradientUnits="userSpaceOnUse" x1="-15.1089" y1="380.9746" x2="38.8911" y2="505.9746">
	<stop  offset="0" style="stop-color:#EC1866"/>
	<stop  offset="1" style="stop-color:#033C62"/>
</linearGradient>
<path id="XMLID_13_" class="st1" d="M-117.1,474c0,0,7.7-73.7,76-58.3c68.3,15.3,85.7,1.3,99-8.3s38.7-21.3,64-18.7
	c25.3,2.7,23.7,80.5,23.7,80.5l-4,6.5L-117.1,474z"/>
</svg>
