<?xml version="1.0" encoding="utf-8"?>
<!-- Generator: Adobe Illustrator 19.0.0, SVG Export Plug-In . SVG Version: 6.00 Build 0)  -->
<svg version="1.1" id="Layer_1" xmlns="http://www.w3.org/2000/svg" xmlns:xlink="http://www.w3.org/1999/xlink" x="0px" y="0px"
	 viewBox="294 97 1200 600" style="enable-background:new 294 97 1200 600;" xml:space="preserve">
<style type="text/css">
	.st0{opacity:0.3;}
	.st1{fill:url(#XMLID_4_);}
	.st2{fill:url(#XMLID_5_);}
</style>
<g id="XMLID_67_" class="st0">
	
		<linearGradient id="XMLID_4_" gradientUnits="userSpaceOnUse" x1="1090.547" y1="-16262" x2="1090.547" y2="-15708" gradientTransform="matrix(1 0 0 -1 0 -15588)">
		<stop  offset="0" style="stop-color:#EC1866"/>
		<stop  offset="1" style="stop-color:#033C62"/>
	</linearGradient>
	<path id="XMLID_68_" class="st1" d="M896.5,320.8l268.6-194.7c14.4-10.4,34.5-7.2,44.9,7.2c10.4,14.4,7.2,34.5-7.2,44.9l-83.4,60.4
		c-8.1,5.9-10,17.3-4.1,25.4c5.9,8.1,17.3,10,25.4,4.1l169.6-122.9c14.4-10.4,34.5-7.2,44.9,7.2c10.4,14.4,7.2,34.5-7.2,44.9
		l-240.9,174.6c-8.1,5.9-10,17.3-4.1,25.4c5.9,8.1,17.3,10,25.4,4.1l41.5-30.1c14.4-10.4,34.5-7.2,45,7.2
		c10.4,14.4,7.2,34.5-7.2,44.9L870.7,667.9c-14.4,10.4-34.5,7.2-44.9-7.2c-10.4-14.4-7.2-34.5,7.2-45L980.2,509
		c8.1-5.9,10-17.3,4.1-25.4c-5.9-8.1-17.3-10-25.4-4.1l-81.4,59c-14.4,10.4-34.5,7.2-44.9-7.2c-10.4-14.4-7.2-34.5,7.2-44.9
		l182.1-132c8.1-5.9,10-17.3,4.1-25.4c-5.9-8.1-17.3-10-25.4-4.1l-66.1,47.9c-14.4,10.4-34.5,7.2-44.9-7.2
		C878.9,351.4,882.1,331.2,896.5,320.8z"/>
</g>
<g id="XMLID_1_" class="st0">
	
		<linearGradient id="XMLID_5_" gradientUnits="userSpaceOnUse" x1="352.7936" y1="-16294" x2="352.7936" y2="-15948.043" gradientTransform="matrix(1 0 0 -1 0 -15588)">
		<stop  offset="0" style="stop-color:#EC1866"/>
		<stop  offset="1" style="stop-color:#033C62"/>
	</linearGradient>
	<path id="XMLID_2_" class="st2" d="M231.6,485.4l167.8-121.6c9-6.5,21.6-4.5,28.1,4.5c6.5,9,4.5,21.6-4.5,28.1l-52.1,37.7
		c-5.1,3.7-6.2,10.8-2.5,15.9c3.7,5.1,10.8,6.2,15.9,2.5l105.9-76.7c9-6.5,21.6-4.5,28.1,4.5c6.5,9,4.5,21.6-4.5,28.1l-150.4,109
		c-5.1,3.7-6.2,10.8-2.5,15.9s10.8,6.2,15.9,2.5l25.9-18.8c9-6.5,21.6-4.5,28.1,4.5c6.5,9,4.5,21.5-4.5,28.1L215.5,702.2
		c-9,6.5-21.6,4.5-28.1-4.5c-6.5-9-4.5-21.6,4.5-28.1l92-66.6c5.1-3.7,6.2-10.8,2.5-15.9s-10.8-6.2-15.9-2.5l-50.9,36.9
		c-9,6.5-21.5,4.5-28.1-4.5c-6.5-9-4.5-21.6,4.5-28.1l113.7-82.4c5.1-3.7,6.2-10.8,2.5-15.9c-3.7-5.1-10.8-6.2-15.9-2.5L255.2,518
		c-9,6.5-21.5,4.5-28.1-4.5C220.6,504.5,222.6,492,231.6,485.4z"/>
</g>
</svg>
