<?xml version="1.0" encoding="utf-8"?>
<!-- Generator: Adobe Illustrator 19.0.0, SVG Export Plug-In . SVG Version: 6.00 Build 0)  -->
<svg version="1.1" id="Layer_1" xmlns="http://www.w3.org/2000/svg" xmlns:xlink="http://www.w3.org/1999/xlink" x="0px" y="0px"
	 viewBox="294 97 1200 600" style="enable-background:new 294 97 1200 600;" xml:space="preserve">
<style type="text/css">
	.st0{opacity:0.3;}
	.st1{fill:url(#XMLID_4_);}
	.st2{fill:url(#XMLID_5_);}
</style>
<g id="XMLID_67_" class="st0">
	
		<linearGradient id="XMLID_4_" gradientUnits="userSpaceOnUse" x1="781.0636" y1="-16275.3311" x2="781.0636" y2="-15694.6689" gradientTransform="matrix(1 0 0 -1 0 -15588)">
		<stop  offset="0" style="stop-color:#EC1866"/>
		<stop  offset="1" style="stop-color:#033C62"/>
	</linearGradient>
	<path id="XMLID_68_" class="st1" d="M577.6,317.1l281.6-204.1c15.1-10.9,36.2-7.6,47.1,7.5c10.9,15.1,7.6,36.2-7.5,47.1L811.4,231
		c-8.5,6.2-10.4,18.1-4.3,26.6c6.2,8.5,18.1,10.4,26.6,4.3l177.7-128.8c15.1-10.9,36.2-7.6,47.1,7.5c10.9,15.1,7.6,36.2-7.5,47.1
		l-252.4,183c-8.5,6.2-10.4,18.1-4.3,26.6c6.2,8.5,18.1,10.4,26.6,4.3l43.5-31.5c15.1-10.9,36.2-7.6,47.1,7.5
		c10.9,15.1,7.6,36.2-7.5,47.1L550.6,680.9c-15.1,10.9-36.2,7.6-47.1-7.5c-10.9-15.1-7.6-36.2,7.5-47.1l154.4-111.9
		c8.5-6.2,10.4-18.1,4.3-26.6c-6.2-8.5-18.1-10.4-26.6-4.2l-85.4,61.9c-15.1,10.9-36.2,7.6-47.1-7.5c-10.9-15.1-7.6-36.2,7.5-47.1
		l190.8-138.3c8.5-6.2,10.4-18.1,4.3-26.6c-6.2-8.5-18.1-10.4-26.6-4.2l-69.3,50.2c-15.1,10.9-36.2,7.6-47.1-7.5
		C559.2,349.2,562.6,328.1,577.6,317.1z"/>
</g>
<g id="XMLID_1_" class="st0">
	
		<linearGradient id="XMLID_5_" gradientUnits="userSpaceOnUse" x1="1288.2043" y1="-16250" x2="1288.2043" y2="-15972" gradientTransform="matrix(1 0 0 -1 0 -15588)">
		<stop  offset="0" style="stop-color:#EC1866"/>
		<stop  offset="1" style="stop-color:#033C62"/>
	</linearGradient>
	<path id="XMLID_2_" class="st2" d="M1190.8,484.8l134.8-97.7c7.2-5.2,17.3-3.6,22.6,3.6c5.2,7.2,3.6,17.3-3.6,22.5l-41.8,30.3
		c-4.1,3-5,8.7-2,12.8c3,4.1,8.7,5,12.8,2l85.1-61.7c7.2-5.2,17.3-3.6,22.6,3.6c5.2,7.2,3.6,17.3-3.6,22.5l-120.9,87.6
		c-4.1,3-5,8.7-2,12.8c3,4.1,8.7,5,12.8,2l20.8-15.1c7.2-5.2,17.3-3.6,22.6,3.6c5.2,7.2,3.6,17.3-3.6,22.6l-169.3,122.7
		c-7.2,5.2-17.3,3.6-22.6-3.6c-5.2-7.2-3.6-17.3,3.6-22.6l73.9-53.6c4.1-3,5-8.7,2-12.8s-8.7-5-12.8-2l-40.9,29.6
		c-7.2,5.2-17.3,3.6-22.5-3.6c-5.2-7.2-3.6-17.3,3.6-22.6l91.4-66.2c4.1-3,5-8.7,2-12.8c-3-4.1-8.7-5-12.8-2l-33.2,24
		c-7.2,5.2-17.3,3.6-22.5-3.6C1182,500.1,1183.6,490,1190.8,484.8z"/>
</g>
</svg>
