<?xml version="1.0" encoding="utf-8"?>
<!-- Generator: Adobe Illustrator 19.0.0, SVG Export Plug-In . SVG Version: 6.00 Build 0)  -->
<svg version="1.1" id="Layer_1" xmlns="http://www.w3.org/2000/svg" xmlns:xlink="http://www.w3.org/1999/xlink" x="0px" y="0px"
	 viewBox="294 97 1200 600" style="enable-background:new 294 97 1200 600;" xml:space="preserve">
<style type="text/css">
	.st0{opacity:0.3;}
	.st1{fill:url(#XMLID_4_);}
	.st2{fill:url(#XMLID_5_);}
</style>
<g id="XMLID_67_" class="st0">
	
		<linearGradient id="XMLID_4_" gradientUnits="userSpaceOnUse" x1="223.7534" y1="-16540.0625" x2="223.7534" y2="-15735" gradientTransform="matrix(1 0 0 -1 0 -15588)">
		<stop  offset="0" style="stop-color:#EC1866"/>
		<stop  offset="1" style="stop-color:#033C62"/>
	</linearGradient>
	<path id="XMLID_68_" class="st1" d="M-58.3,438.8l390.4-282.9c20.9-15.2,50.1-10.5,65.3,10.4c15.2,20.9,10.5,50.1-10.4,65.3
		l-121.1,87.8c-11.8,8.6-14.5,25.1-5.9,36.9c8.6,11.8,25.1,14.5,36.9,5.9l246.4-178.6c20.9-15.2,50.1-10.5,65.3,10.4
		c15.2,20.9,10.5,50.1-10.4,65.3l-350,253.7c-11.8,8.6-14.5,25.1-5.9,36.9c8.6,11.8,25.1,14.5,36.9,5.9l60.4-43.7
		c20.9-15.2,50.2-10.5,65.3,10.4c15.2,20.9,10.5,50.1-10.4,65.3L-95.8,943.2c-20.9,15.2-50.2,10.5-65.3-10.4
		c-15.2-20.9-10.5-50.2,10.4-65.3l214-155.1c11.8-8.6,14.5-25.1,5.9-36.9c-8.6-11.8-25.1-14.5-36.9-5.9l-118.4,85.8
		c-20.9,15.2-50.1,10.5-65.3-10.4c-15.2-20.9-10.5-50.2,10.4-65.3l264.6-191.8c11.8-8.6,14.5-25.1,5.9-36.9
		c-8.6-11.8-25.1-14.5-36.9-5.9l-96,69.6c-20.9,15.2-50.1,10.5-65.3-10.4C-83.9,483.2-79.2,454-58.3,438.8z"/>
</g>
<g id="XMLID_1_" class="st0">
	
		<linearGradient id="XMLID_5_" gradientUnits="userSpaceOnUse" x1="1459.9862" y1="-16230" x2="1459.9862" y2="-15808" gradientTransform="matrix(1 0 0 -1 0 -15588)">
		<stop  offset="0" style="stop-color:#EC1866"/>
		<stop  offset="1" style="stop-color:#033C62"/>
	</linearGradient>
	<path id="XMLID_2_" class="st2" d="M1312.1,373l204.6-148.3c11-7.9,26.3-5.5,34.2,5.5c7.9,11,5.5,26.3-5.5,34.2l-63.5,46
		c-6.2,4.5-7.6,13.2-3.1,19.4c4.5,6.2,13.2,7.6,19.4,3.1l129.2-93.6c11-7.9,26.3-5.5,34.2,5.5c7.9,11,5.5,26.3-5.5,34.2l-183.5,133
		c-6.2,4.5-7.6,13.2-3.1,19.4c4.5,6.2,13.2,7.6,19.4,3.1l31.6-22.9c11-7.9,26.3-5.5,34.2,5.5c7.9,11,5.5,26.3-5.5,34.2l-257,186.2
		c-11,7.9-26.3,5.5-34.2-5.5c-7.9-11-5.5-26.3,5.5-34.2l112.2-81.3c6.2-4.5,7.6-13.2,3.1-19.4s-13.2-7.6-19.4-3.1l-62,45
		c-11,7.9-26.3,5.5-34.2-5.5c-7.9-11-5.5-26.3,5.5-34.2l138.7-100.5c6.2-4.5,7.6-13.2,3.1-19.4c-4.5-6.2-13.2-7.6-19.4-3.1
		l-50.3,36.5c-11,7.9-26.3,5.5-34.2-5.5C1298.7,396.2,1301.2,380.9,1312.1,373z"/>
</g>
</svg>
