<?xml version="1.0" encoding="utf-8"?>
<!-- Generator: Adobe Illustrator 19.0.0, SVG Export Plug-In . SVG Version: 6.00 Build 0)  -->
<svg version="1.1" id="Layer_1" xmlns="http://www.w3.org/2000/svg" xmlns:xlink="http://www.w3.org/1999/xlink" x="0px" y="0px"
	 viewBox="-759.8 179.5 50 50" style="enable-background:new -759.8 179.5 50 50;" xml:space="preserve">
<style type="text/css">
	.st0{fill:#FFFFFF;}
</style>
<path class="st0" d="M-727.1,203.3v1.5c0,0.3,0,1,0,1.4v14.7c0,4.4-3.5,7.8-7.8,7.8l0,0c-4.2,0-7.8-3.4-7.8-7.8v-6.3v-11.3v-0.8
	c0-1.5,1.2-2.7,2.9-2.7l0,0c1.5,0,2.7,1.2,2.7,2.7v0.8v1.5v1.5v2.4v1.4v2.4v1.5v0.3v2v3.9c0,1.2,1,2.2,2.2,2.2l0,0
	c1.2,0,2.4-1,2.4-2.2v-3.9V214v-1.5v-2.4v-1.4v-2.4v-1.5v-1.5c0,0,1-7.4-7.6-7.4h-9.1c-4.2,0-7.8-3.5-7.8-7.8l0,0
	c0-4.4,3.5-7.8,7.8-7.8h28.7c4.4,0,7.8,3.4,7.8,7.8l0,0c0,4.2-3.4,7.8-7.8,7.8h-1.2h-2h-0.7c-1.7,0-2.9-1.2-2.9-2.9l0,0
	c0-1.4,1-2.5,2.4-2.7l0,0h0.3h2.7h1.2c1.2,0,2.2-1,2.2-2.2l0,0c0-1.2-1-2.2-2.2-2.2h-5.1h-3h-1.9h-3h-2h-3h-2h-3h-5.1
	c-1.2,0-2.4,1-2.4,2.2l0,0c0,1.2,1,2.2,2.4,2.2h5.1h3h1.2c0,0,5.6-0.5,9.1,3.4C-727.7,196.6-727.2,199.9-727.1,203.3L-727.1,203.3z"
	/>
</svg>
