<?xml version="1.0" encoding="utf-8"?>
<!-- Generator: Adobe Illustrator 19.0.0, SVG Export Plug-In . SVG Version: 6.00 Build 0)  -->
<svg version="1.1" id="Layer_1" xmlns="http://www.w3.org/2000/svg" xmlns:xlink="http://www.w3.org/1999/xlink" x="0px" y="0px"
	 viewBox="0 0 158.7 41" style="enable-background:new 0 0 158.7 41;" xml:space="preserve">
<style type="text/css">
	.st0{fill:#14171D;}
	.st1{fill:#FFFFFF;}
</style>
<title>ionicons-v5-j</title>
<g id="XMLID_5_">
	<g id="XMLID_15_">
		
			<text id="XMLID_16_" transform="matrix(1 0 0 1 -259.0692 -38.7394)" class="st1" style="font-family:'Oswald-Regular'; font-size:45.6113px;">TIMKAMU</text>
	</g>
</g>
<g id="XMLID_239_">
	<g id="XMLID_240_">
		
			<text id="XMLID_241_" transform="matrix(1 0 0 1 -259.4026 38.2606)" class="st0" style="font-family:'Oswald-Regular'; font-size:45.6113px;">TIMKAMU</text>
	</g>
</g>
<g id="XMLID_268_">
	<g id="XMLID_269_">
		<g id="XMLID_296_">
			<path id="XMLID_297_" class="st0" d="M7.5,38.3V5.1H1.3V1.3h17.5v3.8h-6.1v33.1H7.5z"/>
			<path id="XMLID_299_" class="st0" d="M22.6,38.3V1.3h5.1v36.9H22.6z"/>
			<path id="XMLID_301_" class="st0" d="M33.5,38.3l0.7-36.9h5.1l6.5,30l6.6-30h5l0.7,36.9h-4.2l-0.4-26.8l-6.2,26.8h-2.9l-6.2-26.8
				l-0.4,26.8H33.5z"/>
			<path id="XMLID_303_" class="st0" d="M63.7,38.3V1.3h5.2v17.4l8.5-17.4h4.8l-7.3,16.3l8.5,20.7h-5l-7.1-17.3l-2.4,4.3v13H63.7z"
				/>
			<path id="XMLID_305_" class="st0" d="M84.3,38.3l7.8-36.9h5l7.9,36.9h-4.9L98.4,29h-7.5l-1.8,9.3H84.3z M91.6,25.3h6.2L94.6,8.6
				L91.6,25.3z"/>
			<path id="XMLID_308_" class="st0" d="M108.6,38.3l0.7-36.9h5.1l6.5,30l6.6-30h5l0.7,36.9H129l-0.4-26.8l-6.2,26.8h-2.9l-6.2-26.8
				l-0.4,26.8H108.6z"/>
			<path id="XMLID_310_" class="st0" d="M148.4,38.7c-2.7,0-4.7-0.5-6.2-1.6c-1.4-1.1-2.4-2.6-2.9-4.5c-0.5-1.9-0.8-4.2-0.8-6.8V1.3
				h4.9V26c0,1.6,0.1,3,0.3,4.3c0.2,1.3,0.7,2.3,1.4,3.1c0.7,0.8,1.8,1.1,3.2,1.1c1.5,0,2.5-0.4,3.2-1.1c0.7-0.8,1.2-1.8,1.4-3.1
				c0.2-1.3,0.3-2.8,0.3-4.3V1.3h4.9v24.5c0,2.6-0.3,4.8-0.8,6.8c-0.5,1.9-1.5,3.4-2.9,4.5C153.1,38.1,151.1,38.7,148.4,38.7z"/>
		</g>
	</g>
</g>
<title>ionicons-v5-j</title>
<g id="XMLID_161_">
	<g id="XMLID_162_">
		<g id="XMLID_193_">
			<path id="XMLID_194_" class="st1" d="M6.2-39.1v-33.1h-6.2V-76h17.5v3.8h-6.1v33.1H6.2z"/>
			<path id="XMLID_196_" class="st1" d="M21.2-39.1V-76h5.1v36.9H21.2z"/>
			<path id="XMLID_198_" class="st1" d="M32.2-39.1L32.9-76h5.1l6.5,30L51-76h5l0.7,36.9h-4.2l-0.4-26.8l-6.2,26.8H43l-6.2-26.8
				l-0.4,26.8H32.2z"/>
			<path id="XMLID_200_" class="st1" d="M62.4-39.1V-76h5.2v17.4L76-76h4.8l-7.3,16.3L82-39.1h-5l-7.1-17.3l-2.4,4.3v13H62.4z"/>
			<path id="XMLID_202_" class="st1" d="M83-39.1L90.8-76h5l7.9,36.9h-4.9l-1.7-9.3h-7.5l-1.8,9.3H83z M90.3-52.1h6.2l-3.1-16.6
				L90.3-52.1z"/>
			<path id="XMLID_205_" class="st1" d="M107.3-39.1L108-76h5.1l6.5,30l6.6-30h5l0.7,36.9h-4.2l-0.4-26.8L121-39.1h-2.9l-6.2-26.8
				l-0.4,26.8H107.3z"/>
			<path id="XMLID_224_" class="st1" d="M147-38.7c-2.7,0-4.7-0.5-6.2-1.6c-1.4-1.1-2.4-2.6-2.9-4.5c-0.5-1.9-0.8-4.2-0.8-6.8V-76
				h4.9v24.7c0,1.6,0.1,3,0.3,4.3c0.2,1.3,0.7,2.3,1.4,3.1c0.7,0.8,1.8,1.1,3.2,1.1c1.5,0,2.5-0.4,3.2-1.1c0.7-0.8,1.2-1.8,1.4-3.1
				c0.2-1.3,0.3-2.8,0.3-4.3V-76h4.9v24.5c0,2.6-0.3,4.8-0.8,6.8c-0.5,1.9-1.5,3.4-2.9,4.5C151.8-39.2,149.7-38.7,147-38.7z"/>
		</g>
	</g>
</g>
</svg>
