<?xml version="1.0" encoding="utf-8"?>
<!-- Generator: Adobe Illustrator 19.0.0, SVG Export Plug-In . SVG Version: 6.00 Build 0)  -->
<svg version="1.1" id="Layer_1" xmlns="http://www.w3.org/2000/svg" xmlns:xlink="http://www.w3.org/1999/xlink" x="0px" y="0px"
	 viewBox="0 0 158.7 41" style="enable-background:new 0 0 158.7 41;" xml:space="preserve">
<style type="text/css">
	.st0{fill:#FFFFFF;}
</style>
<title>ionicons-v5-j</title>
<g id="XMLID_5_">
	<g id="XMLID_15_">
		
			<text id="XMLID_16_" transform="matrix(1 0 0 1 -259.0692 38.9272)" class="st0" style="font-family:'Oswald-Regular'; font-size:45.6113px;">TIMKAMU</text>
	</g>
</g>
<title>ionicons-v5-j</title>
<g id="XMLID_161_">
	<g id="XMLID_162_">
		<g id="XMLID_193_">
			<path id="XMLID_194_" class="st0" d="M6.9,38.9V5.8H0.6V2h17.5v3.8H12v33.1H6.9z"/>
			<path id="XMLID_196_" class="st0" d="M21.9,38.9V2H27v36.9H21.9z"/>
			<path id="XMLID_198_" class="st0" d="M32.9,38.9L33.5,2h5.1l6.5,30l6.6-30h5l0.7,36.9h-4.2l-0.4-26.8l-6.2,26.8h-2.9l-6.2-26.8
				l-0.4,26.8H32.9z"/>
			<path id="XMLID_200_" class="st0" d="M63.1,38.9V2h5.2v17.4L76.7,2h4.8l-7.3,16.3l8.5,20.7h-5l-7.1-17.3l-2.4,4.3v13H63.1z"/>
			<path id="XMLID_202_" class="st0" d="M83.6,38.9L91.5,2h5l7.9,36.9h-4.9l-1.7-9.3h-7.5l-1.8,9.3H83.6z M90.9,25.9h6.2L94,9.3
				L90.9,25.9z"/>
			<path id="XMLID_205_" class="st0" d="M108,38.9L108.7,2h5.1l6.5,30l6.6-30h5l0.7,36.9h-4.2L128,12.1l-6.2,26.8h-2.9l-6.2-26.8
				l-0.4,26.8H108z"/>
			<path id="XMLID_224_" class="st0" d="M147.7,39.3c-2.7,0-4.7-0.5-6.2-1.6c-1.4-1.1-2.4-2.6-2.9-4.5c-0.5-1.9-0.8-4.2-0.8-6.8V2
				h4.9v24.7c0,1.6,0.1,3,0.3,4.3c0.2,1.3,0.7,2.3,1.4,3.1c0.7,0.8,1.8,1.1,3.2,1.1c1.5,0,2.5-0.4,3.2-1.1c0.7-0.8,1.2-1.8,1.4-3.1
				c0.2-1.3,0.3-2.8,0.3-4.3V2h4.9v24.5c0,2.6-0.3,4.8-0.8,6.8c-0.5,1.9-1.5,3.4-2.9,4.5C152.4,38.8,150.4,39.3,147.7,39.3z"/>
		</g>
	</g>
</g>
</svg>
