<?xml version="1.0" encoding="utf-8"?>
<!-- Generator: Adobe Illustrator 19.0.0, SVG Export Plug-In . SVG Version: 6.00 Build 0)  -->
<svg version="1.1" id="Layer_1" xmlns="http://www.w3.org/2000/svg" xmlns:xlink="http://www.w3.org/1999/xlink" x="0px" y="0px"
	 viewBox="-355 -78.3 163.3 34" style="enable-background:new -355 -78.3 163.3 34;" xml:space="preserve">
<style type="text/css">
	.st0{fill:#FFFFFF;}
</style>
<g>
	<path class="st0" d="M-335-61.3v0.9c0,0.2,0,0.6,0,0.8v8.7c0,2.6-2.1,4.6-4.6,4.6l0,0c-2.5,0-4.6-2-4.6-4.6v-3.7v-6.7v-0.5
		c0-0.9,0.7-1.6,1.7-1.6l0,0c0.9,0,1.6,0.7,1.6,1.6v0.5v0.9v0.9v1.4v0.8v1.4v0.9v0.2v1.2v2.3c0,0.7,0.6,1.3,1.3,1.3l0,0
		c0.7,0,1.4-0.6,1.4-1.3v-2.3V-55v-0.9v-1.4v-0.8v-1.4v-0.9v-0.9c0,0,0.6-4.4-4.5-4.4h-5.4c-2.5,0-4.6-2.1-4.6-4.6l0,0
		c0-2.6,2.1-4.6,4.6-4.6h17c2.6,0,4.6,2,4.6,4.6l0,0c0,2.5-2,4.6-4.6,4.6h-0.7h-1.2h-0.4c-1,0-1.7-0.7-1.7-1.7l0,0
		c0-0.8,0.6-1.5,1.4-1.6l0,0h0.2h1.6h0.7c0.7,0,1.3-0.6,1.3-1.3l0,0c0-0.7-0.6-1.3-1.3-1.3h-3h-1.8h-1.1h-1.8h-1.2h-1.8h-1.2h-1.8
		h-3c-0.7,0-1.4,0.6-1.4,1.3l0,0c0,0.7,0.6,1.3,1.4,1.3h3h1.8h0.7c0,0,3.3-0.3,5.4,2C-335.4-65.3-335.1-63.3-335-61.3L-335-61.3z"/>
	<g>
		<path class="st0" d="M-300-69.9c1.5,0,2.5,0,2.9,0c0.9,0,1.3,0.4,1.3,1.2c0,0.9-0.5,1.4-1.4,1.4h-4.3v1.3c0,1.7,0,5.9,0.1,12.4
			c0,1-0.5,1.5-1.6,1.5c-0.9,0-1.4-0.5-1.4-1.4l0.1-9.6c0-0.7,0-2.1-0.1-4.2c-0.7,0-2.2,0-4.5,0c-0.8,0-1.2-0.4-1.2-1.3
			c0-0.4,0.1-0.7,0.3-0.9s0.5-0.4,1-0.4c0.1,0,0.4,0,0.8,0c0.4,0,1.1,0,2,0h3.3C-302.5-69.8-301.5-69.9-300-69.9z"/>
		<path class="st0" d="M-293.2-68.6c0-0.5,0.1-0.8,0.4-1s0.6-0.3,1.1-0.3c0.4,0,0.8,0.1,1,0.3c0.3,0.2,0.4,0.5,0.4,0.9v6.3
			c0,0.4,0,1.1,0,2.1s0,1.7,0,2v4.8c0,0.5-0.1,0.8-0.4,1.1s-0.6,0.4-1.1,0.4c-0.4,0-0.8-0.1-1.1-0.3s-0.4-0.6-0.4-1
			c0-0.2,0-0.6,0-1.1s0-0.9,0-1.2l0.1-7.1C-293.1-63.7-293.1-65.6-293.2-68.6z"/>
		<path class="st0" d="M-283.2-58.5c-0.4,3.1-0.6,4.9-0.6,5.3c-0.1,0.8-0.6,1.2-1.5,1.2c-0.5,0-0.8-0.1-1.1-0.4
			c-0.3-0.3-0.4-0.6-0.3-1.1c0.2-1.1,0.9-6.2,2.1-15.3c0.1-0.3,0.3-0.6,0.7-0.8s0.8-0.3,1.2-0.2c0.7,0,1.2,0.5,1.6,1.4l3.8,10.8
			c0.2,0.6,0.3,1,0.4,1.1l0.2-0.6c0.6-1.4,2-5.1,4.3-11.2c0.4-0.9,0.9-1.4,1.4-1.6c0.3,0,0.6,0,0.8,0c0.6,0,1,0.2,1.2,0.6
			c0.1,0.4,0.3,1.4,0.5,2.9s0.5,3.7,0.8,6.6c0.3,2.9,0.6,5,0.8,6.4c0,0.5-0.1,0.8-0.4,1.1s-0.6,0.4-1.1,0.4c-0.9,0-1.3-0.4-1.4-1.2
			c-0.1-0.4-0.4-4.3-1.1-11.7l-4.2,11.1c-0.3,0.8-0.9,1.2-1.7,1.2c-0.3,0-0.5-0.1-0.7-0.2c-0.2-0.1-0.3-0.3-0.4-0.4
			c-0.1-0.1-0.2-0.4-0.3-0.7l-3.9-11.1C-282.5-63.8-282.8-61.6-283.2-58.5z"/>
		<path class="st0" d="M-253.8-69.2c0.5-0.5,0.9-0.8,1.4-0.8c0.4,0,0.7,0.1,1,0.4c0.3,0.3,0.5,0.6,0.5,0.9c0,0.4-0.2,0.8-0.5,1.1
			c-0.7,0.8-2.2,2.4-4.4,4.8l-0.9,1l3.7,4.5l2.2,2.5c0.4,0.4,0.6,0.8,0.6,1.3c0,0.4-0.2,0.7-0.5,1s-0.7,0.4-1.1,0.4
			c-0.5,0-0.9-0.2-1.2-0.7c0,0-0.3-0.4-0.8-1l-4.9-6.3c-0.2,0.3-0.6,0.6-1,1.1c-0.5,0.5-0.8,0.8-0.9,1v4.6c0,0.8-0.5,1.2-1.5,1.3
			c-0.5,0-0.8-0.1-1.1-0.3s-0.4-0.5-0.4-0.9c0-0.2,0-0.4,0-0.9c0-0.4,0-0.8,0-1.1c0-1.6,0-3.8,0-6.6s0-5,0-6.7
			c0-0.9,0.5-1.4,1.5-1.4s1.4,0.4,1.4,1.3c0,0.9,0,2.1,0,3.8s0,2.9,0,3.6C-258.1-64.2-255.8-66.8-253.8-69.2z"/>
		<path class="st0" d="M-248.6-54.9l2.6-6l3.2-8c0.3-0.7,0.8-1,1.6-1c0.9,0,1.5,0.4,1.7,1.1c0.3,0.7,0.9,2.2,1.7,4.3
			c0.8,2.2,1.4,3.6,1.7,4.4c0,0,0.1,0.2,0.2,0.4c0.1,0.2,0.2,0.4,0.2,0.5c0.9,2.2,1.6,3.9,2.1,5.2c0.2,0.3,0.2,0.7,0.2,0.9
			c0,0.3-0.2,0.6-0.5,0.8c-0.3,0.3-0.7,0.4-1.1,0.4c-0.4,0-0.7-0.1-0.9-0.2c-0.2-0.1-0.4-0.4-0.5-0.8c-0.9-2.2-1.3-3.4-1.4-3.6
			c-0.6,0-2.1,0-4.5,0h-2.6c-0.1,0.2-0.3,0.7-0.6,1.6c-0.3,0.9-0.6,1.5-0.7,1.8c-0.2,0.4-0.4,0.7-0.5,0.9c-0.2,0.2-0.5,0.3-0.8,0.3
			c-0.5,0-0.8-0.1-1.2-0.3c-0.3-0.2-0.5-0.6-0.5-1C-249-53.8-248.9-54.3-248.6-54.9z M-243.9-58.9c2.2,0,4,0,5.4-0.1l-2.6-7.4
			C-241.4-65.7-242.3-63.2-243.9-58.9z"/>
		<path class="st0" d="M-227.8-58.5c-0.4,3.1-0.6,4.9-0.6,5.3c-0.1,0.8-0.6,1.2-1.5,1.2c-0.5,0-0.8-0.1-1.1-0.4
			c-0.3-0.3-0.4-0.6-0.3-1.1c0.2-1.1,0.9-6.2,2.1-15.3c0.1-0.3,0.3-0.6,0.7-0.8s0.8-0.3,1.2-0.2c0.7,0,1.2,0.5,1.6,1.4l3.8,10.8
			c0.2,0.6,0.3,1,0.4,1.1l0.2-0.6c0.6-1.4,2-5.1,4.3-11.2c0.4-0.9,0.9-1.4,1.4-1.6c0.3,0,0.6,0,0.8,0c0.6,0,1,0.2,1.2,0.6
			c0.1,0.4,0.3,1.4,0.5,2.9s0.5,3.7,0.8,6.6c0.3,2.9,0.6,5,0.8,6.4c0,0.5-0.1,0.8-0.4,1.1s-0.6,0.4-1.1,0.4c-0.9,0-1.3-0.4-1.4-1.2
			c-0.1-0.4-0.4-4.3-1.1-11.7l-4.2,11.1c-0.3,0.8-0.9,1.2-1.7,1.2c-0.3,0-0.5-0.1-0.7-0.2c-0.2-0.1-0.3-0.3-0.4-0.4
			c-0.1-0.1-0.2-0.4-0.3-0.7l-3.9-11.1C-227.2-63.8-227.4-61.6-227.8-58.5z"/>
		<path class="st0" d="M-208.3-64.3c0-2.1,0-3.4,0-4.1c0-1,0.5-1.4,1.4-1.4c0.6,0,0.9,0.1,1.2,0.4c0.2,0.2,0.3,0.6,0.3,1.1
			c0,1.1,0,4,0,8.9c0,1.6,0.4,2.8,1.1,3.6s1.8,1.2,3.1,1.2c1.2,0,2.2-0.5,2.9-1.4s1.1-2.1,1.1-3.4c0-0.2,0-1.7,0-4.5s0-4.3,0-4.5
			c0-0.9,0.5-1.4,1.5-1.4c0.5,0,0.9,0.1,1.1,0.4c0.2,0.3,0.3,0.7,0.3,1.3l0.1,8.1c0,2.5-0.6,4.5-1.9,5.9s-3,2.2-5.3,2.2
			c-2.1,0-3.8-0.7-5-2s-1.9-3.1-1.9-5.5C-208.3-60.6-208.3-62.2-208.3-64.3z"/>
	</g>
</g>
</svg>
