<svg height="512" viewBox="0 0 64 64" width="512" xmlns="http://www.w3.org/2000/svg"><g id="Flat"><g id="Color_copy" data-name="Color copy"><g><path d="m44 23a10.132 10.132 0 0 1 -7.856-11.148l.856-6.852.659.462a16.2 16.2 0 0 1 6.341 17.538z" fill="#7ab92d"/><path d="m42.367 29.885a10.134 10.134 0 0 1 2.614-13.385l5.54-4.121.123.8a16.206 16.206 0 0 1 -8.277 16.712z" fill="#7ab92d"/><g><path d="m32.716 34.213 2.828 2.829 2.546-1.092a41.509 41.509 0 0 0 13.01-8.808l-2.829-2.828a41.537 41.537 0 0 1 -13.01 8.808z" fill="#a1d51c"/><path d="m51.929 12.657a4 4 0 0 1 4 4v8a0 0 0 0 1 0 0 4 4 0 0 1 -4-4v-8a0 0 0 0 1 0 0z" fill="#cc5144" transform="matrix(.707 .707 -.707 .707 28.988 -32.669)"/><path d="m57.636 16.192a0 0 0 0 1 0 0v6a6 6 0 0 1 -6 6 0 0 0 0 1 0 0v-6a6 6 0 0 1 6-6z" fill="#f8664f" transform="matrix(-.707 -.707 .707 -.707 77.577 76.518)"/><path d="m56.929 20.728a0 0 0 0 1 0 0v4a6 6 0 0 1 -6 6 0 0 0 0 1 0 0v-4a6 6 0 0 1 6-6z" fill="#f89c8d" transform="matrix(-.707 -.707 .707 -.707 73.87 82.054)"/><path d="m46.686 16.485a6 6 0 0 1 6 6v4a0 0 0 0 1 0 0 6 6 0 0 1 -6-6v-4a0 0 0 0 1 0 0z" fill="#f89c8d" transform="matrix(.707 .707 -.707 .707 29.745 -28.841)"/><g fill="#f8664f"><path d="m50.272 25.142-2 2a6 6 0 0 0 8.485 0l2-2a6 6 0 0 1 -8.485 0z"/><path d="m50.272 25.142a6 6 0 0 1 0-8.485l-2 2a6 6 0 0 0 0 8.485z"/></g></g><g><path d="m38.787 31.284-2.829-2.828 1.092-2.546a41.509 41.509 0 0 1 8.808-13.01l2.828 2.829a41.537 41.537 0 0 0 -8.808 13.01z" fill="#a1d51c"/><path d="m56.343 4.071a0 0 0 0 1 0 0v8a4 4 0 0 1 -4 4 0 0 0 0 1 0 0v-8a4 4 0 0 1 4-4z" fill="#cc5144" transform="matrix(-.707 -.707 .707 -.707 85.648 55.619)"/><path d="m47.808 3.364a6 6 0 0 1 6 6v6a0 0 0 0 1 0 0 6 6 0 0 1 -6-6v-6a0 0 0 0 1 0 0z" fill="#f8664f" transform="matrix(.707 .707 -.707 .707 21.503 -33.184)"/><path d="m44.272 5.071a6 6 0 0 1 6 6v4a0 0 0 0 1 0 0 6 6 0 0 1 -6-6v-4a0 0 0 0 1 0 0z" fill="#f89c8d" transform="matrix(.707 .707 -.707 .707 20.967 -30.477)"/><path d="m54.515 9.314a0 0 0 0 1 0 0v4a6 6 0 0 1 -6 6 0 0 0 0 1 0 0v-4a6 6 0 0 1 6-6z" fill="#f89c8d" transform="matrix(-.707 -.707 .707 -.707 77.82 60.861)"/><g fill="#f8664f"><path d="m47.858 5.243-2 2a6 6 0 0 0 0 8.485l2-2a6 6 0 0 1 0-8.485z"/><path d="m47.858 13.728-2 2a6 6 0 0 0 8.485 0l2-2a6 6 0 0 1 -8.485 0z"/></g></g><g><path d="m27.749 44.029-7.778-7.778a66.313 66.313 0 0 1 16.017-25.917l2.367-2.367 2.829 22.627z" fill="#57b7eb"/><path d="m30.012 30.151a6.48 6.48 0 0 1 -7.463-.413 66.029 66.029 0 0 0 -2.578 6.513l7.778 7.778 13.435-13.435-.606-4.843a35.019 35.019 0 0 0 -10.566 4.4z" fill="#4891d3"/><path d="m38.784 43.438-8.914 2.713-7.07-7.071a35.081 35.081 0 0 1 28.9-10.035l7.158.842-6.982 6.213a35.091 35.091 0 0 1 -13.092 7.338z" fill="#84d2f4"/><path d="m11.2 57.464h-8.2l5.562-2.995a15 15 0 0 0 5.752-5.49 12.206 12.206 0 0 0 -8.395.247l-2.919 1.167 5.094-6.112a12.217 12.217 0 0 1 4.845-3.52l4.2-1.681 7.778 7.778-2.577 4.3a13 13 0 0 1 -11.14 6.306z" fill="#57b7eb"/><path d="m17.142 39.08-1.36.544a28.142 28.142 0 0 1 -3.811 17.769l-.028.047a13 13 0 0 0 10.4-6.287l2.564-4.273.006-.03z" fill="#4891d3"/><path d="m13.607 61 .364-.607a28.155 28.155 0 0 0 3.171-21.313l9.9 9.9a11.161 11.161 0 0 1 -6.559 8.965z" fill="#84d2f4"/><path d="m51.876 36.1 1.852-1.647a35.06 35.06 0 0 0 -27.466 8.092l3.608 3.609 8.914-2.713a35.091 35.091 0 0 0 13.092-7.341z" fill="#57b7eb"/><path d="m26.542 48.479-9.4-9.4a28.148 28.148 0 0 1 .654 3.653 12.65 12.65 0 0 1 3.34 11.988 28.146 28.146 0 0 1 -1.085 3.415l.432-.192a11.161 11.161 0 0 0 6.559-8.965z" fill="#57b7eb"/><g fill="#4891d3"><path d="m26.042 43.615a1 1 0 0 1 -.688-1.726l.091-.086a25.519 25.519 0 0 1 14.431-6.795 1 1 0 1 1 .248 1.984 23.545 23.545 0 0 0 -13.306 6.265l-.089.085a1 1 0 0 1 -.687.273z"/><path d="m25.126 34.041a1.052 1.052 0 0 1 -.139-.093 1 1 0 0 1 -.154-1.406l1.558-1.942a5.837 5.837 0 0 0 1.283-3.4 1 1 0 0 1 2 .094 7.818 7.818 0 0 1 -1.721 4.557l-1.557 1.942a1 1 0 0 1 -1.27.248z"/><path d="m21 51a1 1 0 0 1 -.826-1.562 10.182 10.182 0 0 0 1.648-4.259l.189-1.32a1 1 0 1 1 1.98.282l-.191 1.321a12.215 12.215 0 0 1 -1.975 5.1 1 1 0 0 1 -.825.438z"/></g><path d="m16.506 40.615h14v4h-14z" fill="#f9e109" transform="matrix(.707 .707 -.707 .707 37.018 -4.14)"/></g><path d="m45.392 27a8.775 8.775 0 0 1 -10.209 1.034l-3.183-1.834a8.775 8.775 0 0 1 10.209-1.034z" fill="#c4f236"/><path d="m36.183 26.034-2.082-1.2a8.749 8.749 0 0 0 -2.101 1.366l3.183 1.838a8.775 8.775 0 0 0 10.209-1.038l-1.1-.636a8.763 8.763 0 0 1 -8.109-.33z" fill="#a1d51c"/></g></g></g></svg>