<?xml version="1.0" encoding="utf-8"?>
<!-- Generator: Adobe Illustrator 19.0.0, SVG Export Plug-In . SVG Version: 6.00 Build 0)  -->
<svg version="1.1" id="Layer_1" xmlns="http://www.w3.org/2000/svg" xmlns:xlink="http://www.w3.org/1999/xlink" x="0px" y="0px"
	 viewBox="-373.1 268.1 25 25" style="enable-background:new -373.1 268.1 25 25;" xml:space="preserve">
<style type="text/css">
	.st0{fill:#FFB0D0;}
	.st1{fill:#FEF8A6;}
	.st2{fill:#ED5F91;}
	.st3{fill:#FF82AF;}
	.st4{fill:#DC4B7F;}
	.st5{fill:#0074C2;fill-opacity:0.1;}
	.st6{fill:#ED5A9F;}
	.st7{fill:#FF7AB1;}
	.st8{fill:#FFFFFF;}
</style>
<g>
	<path class="st0" d="M-352,272.3c-0.2-0.5-0.9-0.9-1.5-0.9h-6.2c-0.6,0-1.5,0-2.1,0h-6.2c-0.6,0-1.2,0.4-1.5,0.9l-2.7,5.5
		c-0.2,0.5-0.1,1.3,0.3,1.6l10.3,10.2c0.4,0.4,1.1,0.4,1.5,0l10.3-10.2c0.4-0.4,0.5-1.1,0.3-1.6L-352,272.3z"/>
	<g>
		<path class="st1" d="M-354.6,274.1c-0.6-0.6-1.3-1.2-1.9-1.8c0,0-0.1,0-0.1-0.1l-10.4,7.5l1.6,2.2L-354.6,274.1z"/>
	</g>
	<g>
		<path class="st1" d="M-352.9,275.7c-0.2-0.2-0.5-0.4-0.7-0.7l-12.1,8.8l0.6,0.8L-352.9,275.7
			C-352.8,275.8-352.8,275.8-352.9,275.7z"/>
	</g>
	<path class="st2" d="M-349.2,278.9c0.1-0.4,0.1-0.8-0.1-1.1l-2.7-5.5c-0.1-0.2-0.3-0.5-0.6-0.7l-2.4,7L-349.2,278.9z"/>
	<path class="st2" d="M-366.3,278.7l5.7-7.3c-0.4,0-0.8,0-1,0h-6.2c-0.3,0-0.7,0.1-0.9,0.3L-366.3,278.7z"/>
	<path class="st3" d="M-352.5,271.7c-0.3-0.2-0.6-0.3-0.9-0.3h-6.2c-0.3,0-0.7,0-1,0l5.7,7.3L-352.5,271.7z"/>
	<path class="st4" d="M-368.8,271.7c-0.3,0.2-0.5,0.4-0.6,0.6l-2.7,5.5c-0.1,0.3-0.2,0.6-0.1,0.9l5.9,0.2L-368.8,271.7z"/>
	<path class="st5" d="M-368.8,271.7c-0.3,0.2-0.5,0.4-0.6,0.6l-2.7,5.5c-0.1,0.3-0.2,0.6-0.1,0.9l5.9,0.2L-368.8,271.7z"/>
	<path class="st6" d="M-371.7,279.4l10.3,10.2c0.1,0.1,0.3,0.2,0.5,0.3l-5.5-11.2h-5.8C-372.1,279-371.9,279.2-371.7,279.4z"/>
	<path class="st4" d="M-360.4,289.9c0.2,0,0.4-0.1,0.5-0.3l10.3-10.2c0.2-0.2,0.3-0.5,0.4-0.8h-5.8L-360.4,289.9z"/>
	<path class="st5" d="M-360.4,289.9c0.2,0,0.4-0.1,0.5-0.3l10.3-10.2c0.2-0.2,0.3-0.5,0.4-0.8h-5.8L-360.4,289.9z"/>
	<path class="st7" d="M-366.3,278.7l5.4,11.2c0.1,0,0.3,0,0.4,0l5.4-11.2C-355,278.7-366.3,278.7-366.3,278.7z"/>
	<path class="st8" d="M-365.9,275.4c-1,0.3-1.3,0.6-1.6,1.6c-0.3-1-0.6-1.3-1.6-1.6c1-0.3,1.3-0.6,1.6-1.6
		C-367.2,274.8-366.9,275.1-365.9,275.4z"/>
	<path class="st8" d="M-363.2,273.1c-0.5,0.2-0.7,0.3-0.9,0.9c-0.2-0.5-0.3-0.7-0.9-0.9c0.5-0.2,0.7-0.3,0.9-0.9
		C-363.9,272.8-363.7,272.9-363.2,273.1z"/>
	<path class="st8" d="M-362.8,283.2c-0.5,0.2-0.7,0.3-0.9,0.9c-0.2-0.5-0.3-0.7-0.9-0.9c0.5-0.2,0.7-0.3,0.9-0.9
		C-363.5,282.9-363.3,283.1-362.8,283.2z"/>
</g>
</svg>
