<?xml version="1.0" encoding="utf-8"?>
<!-- Generator: Adobe Illustrator 19.0.0, SVG Export Plug-In . SVG Version: 6.00 Build 0)  -->
<svg version="1.1" id="Layer_1" xmlns="http://www.w3.org/2000/svg" xmlns:xlink="http://www.w3.org/1999/xlink" x="0px" y="0px"
	 viewBox="-230 322 150 150" style="enable-background:new -230 322 150 150;" xml:space="preserve">
<style type="text/css">
	.st0{fill:#F593A6;}
	.st1{fill:#D23527;}
	.st2{fill:#FFFFFF;}
</style>
<g>
	<g>
		<path class="st0" d="M-217.7,389.6h-6.7c-1.1,0-1.7-0.6-1.7-1.7v-47.6c0-1.1,0.6-1.7,1.7-1.7h25.3c1.1,0,1.6,0.6,1.6,1.7v5.4
			c0,1.1-0.5,1.7-1.6,1.7h-15.9c-0.6,0-1,0.3-1,0.9v12.3c0,0.6,0.3,1,1,1h13.5c1.1,0,1.7,0.6,1.7,1.7v5.3c0,1.2-0.6,1.7-1.7,1.7
			h-13.5c-0.6,0-1,0.3-1,0.9v16.9C-216,389-216.6,389.6-217.7,389.6z"/>
		<path class="st0" d="M-182,389.6h-6.7c-1.1,0-1.7-0.6-1.7-1.7v-47.6c0-1.1,0.6-1.7,1.7-1.7h18.9c4.1,0,7.3,1.1,9.7,3.4
			c2.3,2.3,3.5,5.5,3.5,9.6v6.2c0,6-2.4,9.9-7.1,11.9v0.3l8.5,17.7c0.5,1.3,0,1.9-1.3,1.9h-6.4c-1,0-1.6-0.1-2.1-0.3
			c-0.4-0.2-0.8-0.7-1-1.3l-7.9-17.1h-5.3c-0.6,0-1,0.3-1,0.9v16.2C-180.4,389-180.9,389.6-182,389.6z M-179.5,362.7h7.8
			c1.7,0,2.9-0.4,3.7-1.1c0.8-0.7,1.2-1.9,1.2-3.4V352c0-1.6-0.4-2.8-1.2-3.6c-0.8-0.7-2-1.1-3.7-1.1h-7.8c-0.6,0-0.9,0.3-0.9,0.9
			v13.6C-180.4,362.4-180.1,362.7-179.5,362.7z"/>
		<path class="st0" d="M-119.5,389.6h-25.9c-1.1,0-1.7-0.6-1.7-1.7v-47.6c0-1.1,0.6-1.7,1.7-1.7h25.9c1.1,0,1.6,0.6,1.6,1.7v5.4
			c0,1.1-0.5,1.7-1.6,1.7h-16.6c-0.6,0-1,0.3-1,0.9v10.3c0,0.6,0.3,0.9,1,0.9h13.5c1.1,0,1.7,0.6,1.7,1.7v5.4c0,1.1-0.6,1.7-1.7,1.7
			h-13.5c-0.6,0-1,0.3-1,0.9v11c0,0.6,0.3,0.9,1,0.9h16.6c1.1,0,1.6,0.6,1.6,1.7v5.4C-117.9,389-118.5,389.6-119.5,389.6z"/>
		<path class="st0" d="M-81.6,389.6h-25.9c-1.1,0-1.7-0.6-1.7-1.7v-47.6c0-1.1,0.6-1.7,1.7-1.7h25.9c1.1,0,1.6,0.6,1.6,1.7v5.4
			c0,1.1-0.5,1.7-1.6,1.7h-16.6c-0.6,0-1,0.3-1,0.9v10.3c0,0.6,0.3,0.9,1,0.9h13.5c1.1,0,1.7,0.6,1.7,1.7v5.4c0,1.1-0.6,1.7-1.7,1.7
			h-13.5c-0.6,0-1,0.3-1,0.9v11c0,0.6,0.3,0.9,1,0.9h16.6c1.1,0,1.6,0.6,1.6,1.7v5.4C-80,389-80.5,389.6-81.6,389.6z"/>
		<path class="st0" d="M-204.7,452.4h-8.6c-4.2,0-7.4-1.1-9.7-3.3c-2.3-2.2-3.4-5.4-3.4-9.6v-25.1c0-4.2,1.1-7.4,3.4-9.6
			c2.3-2.2,5.5-3.3,9.7-3.3h8.6c4.1,0,7.3,1.1,9.6,3.4c2.3,2.2,3.4,5.4,3.4,9.5v3.7c0,1.2-0.6,1.7-1.7,1.7h-6.7
			c-1.1,0-1.7-0.6-1.7-1.7v-3.2c0-1.7-0.4-2.9-1.1-3.6c-0.7-0.7-1.9-1.1-3.6-1.1h-5.4c-1.6,0-2.8,0.4-3.5,1.1
			c-0.7,0.7-1.1,1.9-1.1,3.6V439c0,1.7,0.4,2.9,1.1,3.6c0.7,0.7,1.9,1.1,3.5,1.1h5.4c1.7,0,2.9-0.4,3.6-1.1c0.7-0.7,1.1-1.9,1.1-3.6
			v-3.2c0-1.2,0.6-1.7,1.7-1.7h6.7c1.2,0,1.7,0.6,1.7,1.7v3.7c0,4.1-1.1,7.3-3.4,9.5C-197.3,451.3-200.5,452.4-204.7,452.4z"/>
		<path class="st0" d="M-161.8,452.4h-8.9c-4.2,0-7.4-1.1-9.7-3.3c-2.3-2.2-3.4-5.4-3.4-9.6v-25.1c0-4.2,1.1-7.4,3.4-9.6
			c2.3-2.2,5.5-3.3,9.7-3.3h8.9c4.2,0,7.4,1.1,9.7,3.3c2.3,2.2,3.4,5.4,3.4,9.6v25.1c0,4.2-1.1,7.4-3.4,9.6
			C-154.4,451.3-157.6,452.4-161.8,452.4z M-169.1,443.7h5.6c1.7,0,2.9-0.4,3.6-1.1c0.7-0.7,1.1-1.9,1.1-3.6v-24.2
			c0-1.7-0.4-2.9-1.1-3.6c-0.7-0.7-1.9-1.1-3.6-1.1h-5.6c-1.7,0-2.9,0.4-3.6,1.1c-0.7,0.7-1,1.9-1,3.6V439c0,1.7,0.3,2.9,1,3.6
			C-172,443.4-170.8,443.7-169.1,443.7z"/>
		<path class="st0" d="M-128.8,403.2v47.6c0,1.1-0.6,1.7-1.7,1.7h-6.7c-1.1,0-1.7-0.6-1.7-1.7v-47.6c0-1.1,0.6-1.7,1.7-1.7h6.7
			C-129.3,401.5-128.8,402-128.8,403.2z"/>
		<path class="st0" d="M-109.8,452.4h-6.6c-1.1,0-1.7-0.6-1.7-1.7v-47.6c0-1.1,0.6-1.7,1.7-1.7h5.9c1.1,0,1.8,0.4,2.2,1.1l16,30h0.3
			v-29.5c0-1.1,0.6-1.7,1.7-1.7h6.6c1.1,0,1.7,0.6,1.7,1.7v47.6c0,1.1-0.6,1.7-1.7,1.7h-5.8c-1.2,0-2-0.5-2.5-1.6l-15.8-29.5h-0.3
			v29.4C-108.2,451.9-108.7,452.4-109.8,452.4z"/>
	</g>
	<g>
		<path class="st1" d="M-219.1,388.2h-6.7c-1.1,0-1.7-0.6-1.7-1.7v-47.6c0-1.1,0.6-1.7,1.7-1.7h25.3c1.1,0,1.6,0.6,1.6,1.7v5.4
			c0,1.1-0.5,1.7-1.6,1.7h-15.9c-0.6,0-1,0.3-1,0.9v12.3c0,0.6,0.3,1,1,1h13.5c1.1,0,1.7,0.6,1.7,1.7v5.3c0,1.2-0.6,1.7-1.7,1.7
			h-13.5c-0.6,0-1,0.3-1,0.9v16.9C-217.4,387.7-217.9,388.2-219.1,388.2z"/>
		<path class="st1" d="M-183.4,388.2h-6.7c-1.1,0-1.7-0.6-1.7-1.7v-47.6c0-1.1,0.6-1.7,1.7-1.7h18.9c4.1,0,7.3,1.1,9.7,3.4
			c2.3,2.3,3.5,5.5,3.5,9.6v6.2c0,6-2.4,9.9-7.1,11.9v0.3l8.5,17.7c0.5,1.3,0,1.9-1.3,1.9h-6.4c-1,0-1.6-0.1-2.1-0.3
			c-0.4-0.2-0.8-0.7-1-1.3l-7.9-17.1h-5.3c-0.6,0-1,0.3-1,0.9v16.2C-181.7,387.7-182.3,388.2-183.4,388.2z M-180.9,361.4h7.8
			c1.7,0,2.9-0.4,3.7-1.1c0.8-0.7,1.2-1.9,1.2-3.4v-6.2c0-1.6-0.4-2.8-1.2-3.6c-0.8-0.7-2-1.1-3.7-1.1h-7.8c-0.6,0-0.9,0.3-0.9,0.9
			v13.6C-181.7,361.1-181.5,361.4-180.9,361.4z"/>
		<path class="st1" d="M-120.9,388.2h-25.9c-1.1,0-1.7-0.6-1.7-1.7v-47.6c0-1.1,0.6-1.7,1.7-1.7h25.9c1.1,0,1.6,0.6,1.6,1.7v5.4
			c0,1.1-0.5,1.7-1.6,1.7h-16.6c-0.6,0-1,0.3-1,0.9v10.3c0,0.6,0.3,0.9,1,0.9h13.5c1.1,0,1.7,0.6,1.7,1.7v5.4c0,1.1-0.6,1.7-1.7,1.7
			h-13.5c-0.6,0-1,0.3-1,0.9v11c0,0.6,0.3,0.9,1,0.9h16.6c1.1,0,1.6,0.6,1.6,1.7v5.4C-119.3,387.7-119.8,388.2-120.9,388.2z"/>
		<path class="st1" d="M-83,388.2h-25.9c-1.1,0-1.7-0.6-1.7-1.7v-47.6c0-1.1,0.6-1.7,1.7-1.7H-83c1.1,0,1.6,0.6,1.6,1.7v5.4
			c0,1.1-0.5,1.7-1.6,1.7h-16.6c-0.6,0-1,0.3-1,0.9v10.3c0,0.6,0.3,0.9,1,0.9H-86c1.1,0,1.7,0.6,1.7,1.7v5.4c0,1.1-0.6,1.7-1.7,1.7
			h-13.5c-0.6,0-1,0.3-1,0.9v11c0,0.6,0.3,0.9,1,0.9H-83c1.1,0,1.6,0.6,1.6,1.7v5.4C-81.4,387.7-81.9,388.2-83,388.2z"/>
		<path class="st1" d="M-206,451.1h-8.6c-4.2,0-7.4-1.1-9.7-3.3c-2.3-2.2-3.4-5.4-3.4-9.6V413c0-4.2,1.1-7.4,3.4-9.6
			c2.3-2.2,5.5-3.3,9.7-3.3h8.6c4.1,0,7.3,1.1,9.6,3.4c2.3,2.2,3.4,5.4,3.4,9.5v3.7c0,1.2-0.6,1.7-1.7,1.7h-6.7
			c-1.1,0-1.7-0.6-1.7-1.7v-3.2c0-1.7-0.4-2.9-1.1-3.6c-0.7-0.7-1.9-1.1-3.6-1.1h-5.4c-1.6,0-2.8,0.4-3.5,1.1
			c-0.7,0.7-1.1,1.9-1.1,3.6v24.2c0,1.7,0.4,2.9,1.1,3.6c0.7,0.7,1.9,1.1,3.5,1.1h5.4c1.7,0,2.9-0.4,3.6-1.1
			c0.7-0.7,1.1-1.9,1.1-3.6v-3.2c0-1.2,0.6-1.7,1.7-1.7h6.7c1.2,0,1.7,0.6,1.7,1.7v3.7c0,4.1-1.1,7.3-3.4,9.5
			C-198.7,449.9-201.9,451.1-206,451.1z"/>
		<path class="st1" d="M-163.2,451.1h-8.9c-4.2,0-7.4-1.1-9.7-3.3c-2.3-2.2-3.4-5.4-3.4-9.6V413c0-4.2,1.1-7.4,3.4-9.6
			c2.3-2.2,5.5-3.3,9.7-3.3h8.9c4.2,0,7.4,1.1,9.7,3.3c2.3,2.2,3.4,5.4,3.4,9.6v25.1c0,4.2-1.1,7.4-3.4,9.6
			C-155.8,450-159,451.1-163.2,451.1z M-170.5,442.3h5.6c1.7,0,2.9-0.4,3.6-1.1c0.7-0.7,1.1-1.9,1.1-3.6v-24.2
			c0-1.7-0.4-2.9-1.1-3.6c-0.7-0.7-1.9-1.1-3.6-1.1h-5.6c-1.7,0-2.9,0.4-3.6,1.1c-0.7,0.7-1,1.9-1,3.6v24.2c0,1.7,0.3,2.9,1,3.6
			C-173.3,442-172.1,442.3-170.5,442.3z"/>
		<path class="st1" d="M-130.1,401.8v47.6c0,1.1-0.6,1.7-1.7,1.7h-6.7c-1.1,0-1.7-0.6-1.7-1.7v-47.6c0-1.1,0.6-1.7,1.7-1.7h6.7
			C-130.7,400.1-130.1,400.7-130.1,401.8z"/>
		<path class="st1" d="M-111.2,451.1h-6.6c-1.1,0-1.7-0.6-1.7-1.7v-47.6c0-1.1,0.6-1.7,1.7-1.7h5.9c1.1,0,1.8,0.4,2.2,1.1l16,30h0.3
			v-29.5c0-1.1,0.6-1.7,1.7-1.7h6.6c1.1,0,1.7,0.6,1.7,1.7v47.6c0,1.1-0.6,1.7-1.7,1.7h-5.8c-1.2,0-2-0.5-2.5-1.6l-15.8-29.5h-0.3
			v29.4C-109.5,450.5-110.1,451.1-111.2,451.1z"/>
	</g>
	<g>
		<path class="st2" d="M-220.4,386.8h-6.7c-1.1,0-1.7-0.6-1.7-1.7v-47.6c0-1.1,0.6-1.7,1.7-1.7h25.3c1.1,0,1.6,0.6,1.6,1.7v5.4
			c0,1.1-0.5,1.7-1.6,1.7h-15.9c-0.6,0-1,0.3-1,0.9v12.3c0,0.6,0.3,1,1,1h13.5c1.1,0,1.7,0.6,1.7,1.7v5.3c0,1.2-0.6,1.7-1.7,1.7
			h-13.5c-0.6,0-1,0.3-1,0.9v16.9C-218.8,386.3-219.3,386.8-220.4,386.8z"/>
		<path class="st2" d="M-184.8,386.8h-6.7c-1.1,0-1.7-0.6-1.7-1.7v-47.6c0-1.1,0.6-1.7,1.7-1.7h18.9c4.1,0,7.3,1.1,9.7,3.4
			c2.3,2.3,3.5,5.5,3.5,9.6v6.2c0,6-2.4,9.9-7.1,11.9v0.3l8.5,17.7c0.5,1.3,0,1.9-1.3,1.9h-6.4c-1,0-1.6-0.1-2.1-0.3
			c-0.4-0.2-0.8-0.7-1-1.3l-7.9-17.1h-5.3c-0.6,0-1,0.3-1,0.9v16.2C-183.1,386.3-183.7,386.8-184.8,386.8z M-182.2,360h7.8
			c1.7,0,2.9-0.4,3.7-1.1c0.8-0.7,1.2-1.9,1.2-3.4v-6.2c0-1.6-0.4-2.8-1.2-3.6c-0.8-0.7-2-1.1-3.7-1.1h-7.8c-0.6,0-0.9,0.3-0.9,0.9
			v13.6C-183.1,359.7-182.8,360-182.2,360z"/>
		<path class="st2" d="M-122.3,386.8h-25.9c-1.1,0-1.7-0.6-1.7-1.7v-47.6c0-1.1,0.6-1.7,1.7-1.7h25.9c1.1,0,1.6,0.6,1.6,1.7v5.4
			c0,1.1-0.5,1.7-1.6,1.7h-16.6c-0.6,0-1,0.3-1,0.9v10.3c0,0.6,0.3,0.9,1,0.9h13.5c1.1,0,1.7,0.6,1.7,1.7v5.4c0,1.1-0.6,1.7-1.7,1.7
			h-13.5c-0.6,0-1,0.3-1,0.9v11c0,0.6,0.3,0.9,1,0.9h16.6c1.1,0,1.6,0.6,1.6,1.7v5.4C-120.7,386.3-121.2,386.8-122.3,386.8z"/>
		<path class="st2" d="M-84.3,386.8h-25.9c-1.1,0-1.7-0.6-1.7-1.7v-47.6c0-1.1,0.6-1.7,1.7-1.7h25.9c1.1,0,1.6,0.6,1.6,1.7v5.4
			c0,1.1-0.5,1.7-1.6,1.7h-16.6c-0.6,0-1,0.3-1,0.9v10.3c0,0.6,0.3,0.9,1,0.9h13.5c1.1,0,1.7,0.6,1.7,1.7v5.4c0,1.1-0.6,1.7-1.7,1.7
			h-13.5c-0.6,0-1,0.3-1,0.9v11c0,0.6,0.3,0.9,1,0.9h16.6c1.1,0,1.6,0.6,1.6,1.7v5.4C-82.7,386.3-83.3,386.8-84.3,386.8z"/>
		<path class="st2" d="M-207.4,449.7h-8.6c-4.2,0-7.4-1.1-9.7-3.3c-2.3-2.2-3.4-5.4-3.4-9.6v-25.1c0-4.2,1.1-7.4,3.4-9.6
			c2.3-2.2,5.5-3.3,9.7-3.3h8.6c4.1,0,7.3,1.1,9.6,3.4c2.3,2.2,3.4,5.4,3.4,9.5v3.7c0,1.2-0.6,1.7-1.7,1.7h-6.7
			c-1.1,0-1.7-0.6-1.7-1.7v-3.2c0-1.7-0.4-2.9-1.1-3.6c-0.7-0.7-1.9-1.1-3.6-1.1h-5.4c-1.6,0-2.8,0.4-3.5,1.1
			c-0.7,0.7-1.1,1.9-1.1,3.6v24.2c0,1.7,0.4,2.9,1.1,3.6c0.7,0.7,1.9,1.1,3.5,1.1h5.4c1.7,0,2.9-0.4,3.6-1.1
			c0.7-0.7,1.1-1.9,1.1-3.6v-3.2c0-1.2,0.6-1.7,1.7-1.7h6.7c1.2,0,1.7,0.6,1.7,1.7v3.7c0,4.1-1.1,7.3-3.4,9.5
			C-200.1,448.6-203.3,449.7-207.4,449.7z"/>
		<path class="st2" d="M-164.5,449.7h-8.9c-4.2,0-7.4-1.1-9.7-3.3c-2.3-2.2-3.4-5.4-3.4-9.6v-25.1c0-4.2,1.1-7.4,3.4-9.6
			c2.3-2.2,5.5-3.3,9.7-3.3h8.9c4.2,0,7.4,1.1,9.7,3.3c2.3,2.2,3.4,5.4,3.4,9.6v25.1c0,4.2-1.1,7.4-3.4,9.6
			C-157.1,448.6-160.4,449.7-164.5,449.7z M-171.8,441h5.6c1.7,0,2.9-0.4,3.6-1.1c0.7-0.7,1.1-1.9,1.1-3.6v-24.2
			c0-1.7-0.4-2.9-1.1-3.6c-0.7-0.7-1.9-1.1-3.6-1.1h-5.6c-1.7,0-2.9,0.4-3.6,1.1c-0.7,0.7-1,1.9-1,3.6v24.2c0,1.7,0.3,2.9,1,3.6
			C-174.7,440.6-173.5,441-171.8,441z"/>
		<path class="st2" d="M-131.5,400.4V448c0,1.1-0.6,1.7-1.7,1.7h-6.7c-1.1,0-1.7-0.6-1.7-1.7v-47.6c0-1.1,0.6-1.7,1.7-1.7h6.7
			C-132.1,398.7-131.5,399.3-131.5,400.4z"/>
		<path class="st2" d="M-112.6,449.7h-6.6c-1.1,0-1.7-0.6-1.7-1.7v-47.6c0-1.1,0.6-1.7,1.7-1.7h5.9c1.1,0,1.8,0.4,2.2,1.1l16,30h0.3
			v-29.5c0-1.1,0.6-1.7,1.7-1.7h6.6c1.1,0,1.7,0.6,1.7,1.7V448c0,1.1-0.6,1.7-1.7,1.7h-5.8c-1.2,0-2-0.5-2.5-1.6l-15.8-29.5h-0.3
			V448C-110.9,449.1-111.5,449.7-112.6,449.7z"/>
	</g>
</g>
</svg>
