<?xml version="1.0" encoding="utf-8"?>
<!-- Generator: Adobe Illustrator 19.0.0, SVG Export Plug-In . SVG Version: 6.00 Build 0)  -->
<svg version="1.1" id="Layer_1" xmlns="http://www.w3.org/2000/svg" xmlns:xlink="http://www.w3.org/1999/xlink" x="0px" y="0px"
	 viewBox="-355.5 321.5 150 150" style="enable-background:new -355.5 321.5 150 150;" xml:space="preserve">
<style type="text/css">
	.st0{fill:#F6D738;}
	.st1{fill:#F3CC30;}
	.st2{fill:#EDBD31;}
	.st3{fill:#D49A34;}
	.st4{fill:#F7DB5E;}
</style>
<g>
	<g>
		<circle class="st0" cx="-280.5" cy="394.3" r="70.8"/>
	</g>
	<g>
		<circle class="st1" cx="-280.5" cy="394.3" r="59.7"/>
	</g>
	<g>
		<path class="st2" d="M-249.1,343.2c6.2,9.2,9.2,20.3,9.2,32c0,33.2-27.1,59.7-59.7,59.7c-11.7,0-22.1-3.1-31.4-8.6
			c10.5,16.6,29.5,27.7,50.4,27.7c33.2,0,59.7-27.1,59.7-59.7C-220.8,372.7-231.9,353.6-249.1,343.2z"/>
	</g>
	<path class="st3" d="M-268.2,397.9v2.5c0,0.6,0,1.8,0,2.5v23.4c0,6.8-5.5,12.3-12.3,12.3l0,0c-6.8,0-12.3-5.5-12.3-12.3v-10.5
		v-17.8v-1.2c0-2.5,1.8-4.3,4.9-4.3l0,0c2.5,0,4.3,1.8,4.3,4.3v1.2v2.5v2.5v3.7v2.5v3.7v2.5v0.6v3.1v6.2c0,1.8,1.8,3.7,3.7,3.7l0,0
		c1.8,0,3.7-1.8,3.7-3.7v-6.2v-3.7v-2.5V409v-2.5v-3.7v-2.5v-2.5c0,0,1.8-11.7-12.3-11.7h-14.8c-6.8,0-12.3-5.5-12.3-12.3l0,0
		c0-6.8,5.5-12.3,12.3-12.3h46.1c6.8,0,12.3,5.5,12.3,12.3l0,0c0,6.8-5.5,12.3-12.3,12.3h-1.8h-3.1h-1.2c-2.5,0-4.9-1.8-4.9-4.9l0,0
		c0-2.5,1.8-4.3,3.7-4.3l0,0h0.6h4.3h1.8c1.8,0,3.7-1.8,3.7-3.7l0,0c0-1.8-1.8-3.7-3.7-3.7h-8h-4.9h-3.1h-4.9h-3.1h-4.9h-3.1h-4.9
		h-8c-1.8,0-3.7,1.8-3.7,3.7l0,0c0,1.8,1.8,3.7,3.7,3.7h8h4.9h1.8c0,0,9.2-0.6,14.8,5.5C-268.8,386.9-268.2,392.4-268.2,397.9
		L-268.2,397.9z"/>
	<g>
		<path class="st4" d="M-329.7,399.8c0-28.9,23.4-52.9,52.9-52.9c17.2,0,32,8,41.8,20.9c-9.2-16-26.5-26.5-46.1-26.5
			c-28.9,0-52.9,23.4-52.9,52.9c0,12.3,4.3,23.4,11.1,32C-327.3,418.2-329.7,409.6-329.7,399.8z"/>
	</g>
</g>
</svg>
