<?xml version="1.0" encoding="utf-8"?>
<!-- Generator: Adobe Illustrator 19.0.0, SVG Export Plug-In . SVG Version: 6.00 Build 0)  -->
<svg version="1.1" id="Layer_1" xmlns="http://www.w3.org/2000/svg" xmlns:xlink="http://www.w3.org/1999/xlink" x="0px" y="0px"
	 viewBox="-373.1 268.1 25 25" style="enable-background:new -373.1 268.1 25 25;" xml:space="preserve">
<style type="text/css">
	.st0{fill:#BE75FF;}
	.st1{fill:#FEB9EB;}
	.st2{fill:#A061FF;}
	.st3{fill:#9F48FF;}
	.st4{fill:#D783EB;}
	.st5{fill:#8B38D6;}
	.st6{fill:#8536CD;}
	.st7{fill:#FFFFFF;}
</style>
<g>
	<path class="st0" d="M-349.4,280.2c0.3,0.3,0.3,0.7,0,1l-10.7,10.7c-0.3,0.3-0.7,0.3-1,0l-10.7-10.8c-0.3-0.3-0.3-0.7,0-1
		l10.7-10.7c0.3-0.3,0.7-0.3,1,0L-349.4,280.2z"/>
	<path class="st1" d="M-353.9,275.7l-12.1,8.8l-0.7-1l12-8.6L-353.9,275.7z M-355.9,273.7l-2.2-2.2l-10.2,7.4l1.8,2.5L-355.9,273.7z
		"/>
	<path class="st2" d="M-366,287l4.9,4.9c0.3,0.3,0.7,0.3,1,0l6.9-6.9l1.6-4.3h-17.4L-366,287z"/>
	<path class="st3" d="M-361,269.3c0,0-0.1,0.1-0.1,0.1l-10.7,10.7c-0.1,0.1-0.2,0.3-0.2,0.5h7.4L-361,269.3z"/>
	<path class="st4" d="M-356.6,280.6h7.4c0-0.2-0.1-0.4-0.2-0.5l-10.7-10.7c0,0-0.1-0.1-0.1-0.1L-356.6,280.6z"/>
	<path class="st5" d="M-361.1,291.8c0,0,0.1,0.1,0.1,0.1l-3.7-11.3h-7.4c0,0.2,0.1,0.4,0.2,0.5L-361.1,291.8z"/>
	<path class="st6" d="M-356.6,280.6l-3.7,11.3c0,0,0.1-0.1,0.1-0.1l10.7-10.7c0.1-0.1,0.2-0.3,0.2-0.5L-356.6,280.6L-356.6,280.6z"
		/>
	<path class="st7" d="M-364.7,274.7c-1.1,0.3-1.3,0.6-1.7,1.7c-0.3-1.1-0.6-1.3-1.7-1.7c1.1-0.3,1.3-0.6,1.7-1.7
		C-366,274.1-365.7,274.4-364.7,274.7z"/>
	<path class="st7" d="M-362.7,277.2c-0.6,0.2-0.7,0.3-0.9,0.9c-0.2-0.6-0.3-0.7-0.9-0.9c0.6-0.2,0.7-0.3,0.9-0.9
		C-363.4,276.9-363.3,277-362.7,277.2z"/>
</g>
</svg>
