<?xml version="1.0" encoding="utf-8"?>
<!-- Generator: Adobe Illustrator 19.0.0, SVG Export Plug-In . SVG Version: 6.00 Build 0)  -->
<svg version="1.1" id="Layer_1" xmlns="http://www.w3.org/2000/svg" xmlns:xlink="http://www.w3.org/1999/xlink" x="0px" y="0px"
	 viewBox="0 0 50 50" style="enable-background:new 0 0 50 50;" xml:space="preserve">
<style type="text/css">
	.st0{fill:url(#XMLID_26_);}
	.st1{fill:url(#XMLID_27_);}
	.st2{fill:url(#XMLID_28_);}
	.st3{fill:url(#XMLID_29_);}
	.st4{fill:#0096D6;}
	.st5{fill:#0069AA;}
	.st6{fill:url(#XMLID_30_);}
	.st7{fill:url(#XMLID_31_);}
	.st8{fill:url(#XMLID_32_);}
	.st9{fill:url(#XMLID_33_);}
	.st10{fill:url(#XMLID_34_);}
	.st11{fill:url(#XMLID_35_);}
	.st12{fill:url(#XMLID_36_);}
	.st13{fill:url(#XMLID_37_);}
	.st14{fill:url(#XMLID_38_);}
	.st15{fill:url(#XMLID_39_);}
	.st16{fill:url(#XMLID_40_);}
	.st17{fill:url(#XMLID_41_);}
	.st18{fill:url(#XMLID_42_);}
	.st19{fill:url(#XMLID_43_);}
</style>
<g>
	<linearGradient id="XMLID_26_" gradientUnits="userSpaceOnUse" x1="0.3422" y1="25" x2="49.6578" y2="25">
		<stop  offset="0" style="stop-color:#5DFFFF"/>
		<stop  offset="1" style="stop-color:#0A79BF"/>
	</linearGradient>
	<polygon id="XMLID_24_" class="st0" points="38,5.8 37.9,6 25.2,6.8 12.6,6 12.5,5.8 0.8,16.6 0.9,16.7 0.3,16.6 6.2,22.9 
		6.2,22.8 15,32.8 25.2,44.2 35.5,32.8 49.7,16.6 	"/>
	<g>
		<linearGradient id="XMLID_27_" gradientUnits="userSpaceOnUse" x1="0.7834" y1="28.6372" x2="25.221" y2="28.6372">
			<stop  offset="0" style="stop-color:#FFFFFF"/>
			<stop  offset="0.5031" style="stop-color:#5DFFFF"/>
			<stop  offset="1" style="stop-color:#0A79BF"/>
		</linearGradient>
		<polygon id="XMLID_23_" class="st1" points="25.2,44.2 25.2,16.6 15.9,13.1 0.8,16.6 		"/>
		<linearGradient id="XMLID_28_" gradientUnits="userSpaceOnUse" x1="13.0956" y1="30.4093" x2="25.221" y2="30.4093">
			<stop  offset="0" style="stop-color:#5DFFFF"/>
			<stop  offset="1" style="stop-color:#0A79BF"/>
		</linearGradient>
		<polygon id="XMLID_22_" class="st2" points="25.2,16.6 13.1,19 25.2,44.2 		"/>
		<linearGradient id="XMLID_29_" gradientUnits="userSpaceOnUse" x1="0.7834" y1="24.7197" x2="14.9609" y2="24.7197">
			<stop  offset="0" style="stop-color:#FFFFFF;stop-opacity:0"/>
			<stop  offset="1" style="stop-color:#FFFFFF"/>
		</linearGradient>
		<polygon id="XMLID_21_" class="st3" points="0.8,16.6 13.1,19 15,32.8 		"/>
		<polygon id="XMLID_20_" class="st4" points="13.1,19 25.2,44.2 15,32.8 		"/>
		<polygon id="XMLID_19_" class="st5" points="13.1,19 25.2,16.6 25.2,29.7 		"/>
		<linearGradient id="XMLID_30_" gradientUnits="userSpaceOnUse" x1="0.7834" y1="11.1958" x2="15.8938" y2="11.1958">
			<stop  offset="0" style="stop-color:#FFFFFF"/>
			<stop  offset="0.5031" style="stop-color:#5DFFFF"/>
			<stop  offset="1" style="stop-color:#0A79BF"/>
		</linearGradient>
		<polygon id="XMLID_18_" class="st6" points="15.9,13.1 12.5,5.8 0.8,16.6 		"/>
		<polygon id="XMLID_17_" class="st5" points="15.9,13.1 25.2,6.8 12.5,6 		"/>
		<linearGradient id="XMLID_31_" gradientUnits="userSpaceOnUse" x1="25.221" y1="28.6372" x2="49.6578" y2="28.6372">
			<stop  offset="0" style="stop-color:#FFFFFF;stop-opacity:0"/>
			<stop  offset="1" style="stop-color:#FFFFFF"/>
		</linearGradient>
		<polygon id="XMLID_16_" class="st7" points="25.2,44.2 25.2,16.6 34.5,13.1 49.7,16.6 		"/>
		<linearGradient id="XMLID_32_" gradientUnits="userSpaceOnUse" x1="15.8938" y1="11.7114" x2="34.5479" y2="11.7114">
			<stop  offset="0" style="stop-color:#56F3F9"/>
			<stop  offset="1" style="stop-color:#0A79BF"/>
		</linearGradient>
		<polygon id="XMLID_15_" class="st8" points="25.2,16.6 34.5,13.1 25.2,6.8 15.9,13.1 		"/>
		<linearGradient id="XMLID_33_" gradientUnits="userSpaceOnUse" x1="25.221" y1="30.4093" x2="37.346" y2="30.4093">
			<stop  offset="0" style="stop-color:#56F3F9"/>
			<stop  offset="1" style="stop-color:#0A79BF"/>
		</linearGradient>
		<polygon id="XMLID_14_" class="st9" points="25.2,16.6 37.3,19 25.2,44.2 		"/>
		<polygon id="XMLID_13_" class="st5" points="49.7,16.6 37.3,19 35.5,32.8 		"/>
		<linearGradient id="XMLID_34_" gradientUnits="userSpaceOnUse" x1="25.221" y1="31.6221" x2="37.346" y2="31.6221">
			<stop  offset="0" style="stop-color:#FFFFFF"/>
			<stop  offset="0.5031" style="stop-color:#5DFFFF"/>
			<stop  offset="1" style="stop-color:#0A79BF"/>
		</linearGradient>
		<polygon id="XMLID_12_" class="st10" points="37.3,19 25.2,44.2 35.5,32.8 		"/>
		<linearGradient id="XMLID_35_" gradientUnits="userSpaceOnUse" x1="25.221" y1="23.1343" x2="37.346" y2="23.1343">
			<stop  offset="0" style="stop-color:#FFFFFF;stop-opacity:0"/>
			<stop  offset="1" style="stop-color:#FFFFFF"/>
		</linearGradient>
		<polygon id="XMLID_11_" class="st11" points="37.3,19 25.2,16.6 25.2,29.7 		"/>
		<polygon id="XMLID_10_" class="st5" points="34.5,13.1 38,5.8 49.7,16.6 		"/>
		<linearGradient id="XMLID_36_" gradientUnits="userSpaceOnUse" x1="25.221" y1="9.5168" x2="37.968" y2="9.5168">
			<stop  offset="0" style="stop-color:#FFFFFF;stop-opacity:0"/>
			<stop  offset="1" style="stop-color:#FFFFFF"/>
		</linearGradient>
		<polygon id="XMLID_9_" class="st12" points="34.5,13.1 25.2,6.8 38,6 		"/>
		<linearGradient id="XMLID_37_" gradientUnits="userSpaceOnUse" x1="37.346" y1="19.738" x2="49.6578" y2="19.738">
			<stop  offset="0" style="stop-color:#5DFFFF"/>
			<stop  offset="1" style="stop-color:#0A79BF"/>
		</linearGradient>
		<polygon id="XMLID_8_" class="st13" points="37.3,19 49.7,16.6 43.8,22.9 		"/>
		<linearGradient id="XMLID_38_" gradientUnits="userSpaceOnUse" x1="0.3422" y1="19.738" x2="12.654" y2="19.738">
			<stop  offset="0" style="stop-color:#56F3F9"/>
			<stop  offset="1" style="stop-color:#42C4DD"/>
		</linearGradient>
		<polygon id="XMLID_7_" class="st14" points="12.7,19 0.3,16.6 6.2,22.9 		"/>
	</g>
	<linearGradient id="XMLID_39_" gradientUnits="userSpaceOnUse" x1="15.8938" y1="11.7114" x2="34.5479" y2="11.7114">
		<stop  offset="0" style="stop-color:#FFFFFF;stop-opacity:0"/>
		<stop  offset="1" style="stop-color:#FFFFFF"/>
	</linearGradient>
	<polygon id="XMLID_6_" class="st15" points="25.2,16.6 34.5,13.1 25.2,6.8 15.9,13.1 	"/>
	<linearGradient id="XMLID_40_" gradientUnits="userSpaceOnUse" x1="25.221" y1="31.6221" x2="37.346" y2="31.6221">
		<stop  offset="0" style="stop-color:#FFFFFF;stop-opacity:0"/>
		<stop  offset="1" style="stop-color:#FFFFFF"/>
	</linearGradient>
	<polygon id="XMLID_5_" class="st16" points="37.3,19 25.2,44.2 35.5,32.8 	"/>
	<linearGradient id="XMLID_41_" gradientUnits="userSpaceOnUse" x1="25.221" y1="9.5168" x2="37.968" y2="9.5168">
		<stop  offset="0" style="stop-color:#FFFFFF;stop-opacity:0"/>
		<stop  offset="1" style="stop-color:#FFFFFF"/>
	</linearGradient>
	<polygon id="XMLID_4_" class="st17" points="34.5,13.1 25.2,6.8 38,6 	"/>
	<polygon id="XMLID_3_" class="st4" points="37.3,19 49.7,16.6 43.8,22.9 	"/>
	<linearGradient id="XMLID_42_" gradientUnits="userSpaceOnUse" x1="0.3422" y1="19.738" x2="12.654" y2="19.738">
		<stop  offset="0" style="stop-color:#FFFFFF;stop-opacity:0"/>
		<stop  offset="1" style="stop-color:#FFFFFF"/>
	</linearGradient>
	<polygon id="XMLID_2_" class="st18" points="12.7,19 0.3,16.6 6.2,22.9 	"/>
	<linearGradient id="XMLID_43_" gradientUnits="userSpaceOnUse" x1="5.7893" y1="25.0931" x2="49.6578" y2="25.0931">
		<stop  offset="0" style="stop-color:#FFFFFF;stop-opacity:0"/>
		<stop  offset="1" style="stop-color:#FFFFFF"/>
	</linearGradient>
	<polygon id="XMLID_1_" class="st19" points="49.7,16.6 25.2,16.6 38,6 15.9,13.1 5.8,15.4 13.1,19 25.2,29.7 25.2,44.2 37.3,19 	
		"/>
</g>
</svg>
