<?xml version="1.0" encoding="utf-8"?>
<!-- Generator: Adobe Illustrator 19.0.0, SVG Export Plug-In . SVG Version: 6.00 Build 0)  -->
<svg version="1.1" id="Layer_1" xmlns="http://www.w3.org/2000/svg" xmlns:xlink="http://www.w3.org/1999/xlink" x="0px" y="0px"
	 viewBox="-287 175 385 212" style="enable-background:new -287 175 385 212;" xml:space="preserve">
<style type="text/css">
	.st0{opacity:0.3;fill:url(#XMLID_2_);}
	.st1{opacity:0.3;fill:url(#XMLID_3_);}
</style>
<linearGradient id="XMLID_2_" gradientUnits="userSpaceOnUse" x1="-151.9542" y1="334.4854" x2="11.0458" y2="127.4854">
	<stop  offset="0" style="stop-color:#BF301F"/>
	<stop  offset="0.3825" style="stop-color:#A92015"/>
	<stop  offset="1" style="stop-color:#7F0000"/>
</linearGradient>
<path id="XMLID_241_" class="st0" d="M-273.6,174.4c0,0-4.1,69.2,89.1,59.2s97.7,78.7,99.1,91.6c8.3,76.3,122.8,68.2,143.7,7.4
	s88.7-63.2,88.7-63.2v-94.7L-273.6,174.4z"/>
<linearGradient id="XMLID_3_" gradientUnits="userSpaceOnUse" x1="-78.864" y1="260.0394" x2="-32.864" y2="101.0394">
	<stop  offset="0" style="stop-color:#BF301F"/>
	<stop  offset="0.3825" style="stop-color:#A92015"/>
	<stop  offset="1" style="stop-color:#7F0000"/>
</linearGradient>
<path id="XMLID_240_" class="st1" d="M-224.1,169.6c0,0,9.7,73.7,96.1,58.3s108.4-1.3,125.2,8.3s48.9,21.3,81,18.7
	c32-2.7,29.9-80.5,29.9-80.5l-5.1-6.5L-224.1,169.6z"/>
</svg>
