<?xml version="1.0" encoding="utf-8"?>
<!-- Generator: Adobe Illustrator 19.0.0, SVG Export Plug-In . SVG Version: 6.00 Build 0)  -->
<svg version="1.1" id="Layer_1" xmlns="http://www.w3.org/2000/svg" xmlns:xlink="http://www.w3.org/1999/xlink" x="0px" y="0px"
	 viewBox="-160 327.7 289.7 139.3" style="enable-background:new -160 327.7 289.7 139.3;" xml:space="preserve">
<style type="text/css">
	.st0{fill:url(#XMLID_2_);}
	.st1{fill:url(#XMLID_3_);}
</style>
<linearGradient id="XMLID_2_" gradientUnits="userSpaceOnUse" x1="-54.1401" y1="358.3167" x2="4.3569" y2="460.3116">
	<stop  offset="0" style="stop-color:#BF301F"/>
	<stop  offset="0.3825" style="stop-color:#A92015"/>
	<stop  offset="1" style="stop-color:#7F0000"/>
</linearGradient>
<path id="XMLID_280_" class="st0" d="M-151.6,470.9c0,0-2.8-46.3,60.9-39.6S-24,378.7-23,370c5.7-51,84-45.6,98.3-5
	s60.7,42.4,60.7,42.4v63.3L-151.6,470.9z"/>
<linearGradient id="XMLID_3_" gradientUnits="userSpaceOnUse" x1="6.6769" y1="399.6023" x2="27.6759" y2="501.5972">
	<stop  offset="0" style="stop-color:#BF301F"/>
	<stop  offset="0.3825" style="stop-color:#A92015"/>
	<stop  offset="1" style="stop-color:#7F0000"/>
</linearGradient>
<path id="XMLID_275_" class="st1" d="M-112.5,475.7c0,0,7.7-73.7,76-58.3c68.3,15.3,85.7,1.3,99-8.3s38.7-21.3,64-18.7
	c25.3,2.7,23.7,80.5,23.7,80.5l-4,6.5L-112.5,475.7z"/>
</svg>
