<?xml version="1.0" encoding="utf-8"?>
<!-- Generator: Adobe Illustrator 19.0.0, SVG Export Plug-In . SVG Version: 6.00 Build 0)  -->
<svg version="1.1" id="Layer_1" xmlns="http://www.w3.org/2000/svg" xmlns:xlink="http://www.w3.org/1999/xlink" x="0px" y="0px"
	 viewBox="120 -20 1200 600" style="enable-background:new 120 -20 1200 600;" xml:space="preserve">
<style type="text/css">
	.st0{opacity:0.2;}
	.st1{fill:url(#XMLID_4_);}
	.st2{fill:url(#XMLID_5_);}
</style>
<g id="XMLID_67_" class="st0">
	
		<linearGradient id="XMLID_4_" gradientUnits="userSpaceOnUse" x1="628.094" y1="16713.7363" x2="628.094" y2="16133" gradientTransform="matrix(1 0 0 1 0 -16148)">
		<stop  offset="0" style="stop-color:#BF301F"/>
		<stop  offset="0.3825" style="stop-color:#A92015"/>
		<stop  offset="1" style="stop-color:#7F0000"/>
	</linearGradient>
	<path id="XMLID_68_" class="st1" d="M424.7,195.5L706.3-8.6c15.1-10.9,36.2-7.6,47.1,7.5C764.3,14,761,35.1,745.9,46l-87.4,63.4
		c-8.5,6.2-10.4,18.1-4.3,26.6c6.2,8.5,18.1,10.4,26.6,4.3L858.5,11.5c15.1-10.9,36.2-7.6,47.1,7.5s7.6,36.2-7.5,47.1l-252.4,183
		c-8.5,6.2-10.4,18.1-4.3,26.6c6.2,8.5,18.1,10.4,26.6,4.3l43.5-31.5c15.1-10.9,36.2-7.6,47.1,7.5c10.9,15.1,7.6,36.2-7.5,47.1
		L397.7,559.3c-15.1,10.9-36.2,7.6-47.1-7.5s-7.6-36.2,7.5-47.1l154.4-111.9c8.5-6.2,10.4-18.1,4.3-26.6
		c-6.2-8.5-18.1-10.4-26.6-4.2l-85.4,61.9c-15.1,10.9-36.2,7.6-47.1-7.5s-7.6-36.2,7.5-47.1L556,231c8.5-6.2,10.4-18.1,4.3-26.6
		c-6.2-8.5-18.1-10.4-26.6-4.2l-69.3,50.2c-15.1,10.9-36.2,7.6-47.1-7.5C406.3,227.6,409.7,206.5,424.7,195.5z"/>
</g>
<g id="XMLID_1_" class="st0">
	
		<linearGradient id="XMLID_5_" gradientUnits="userSpaceOnUse" x1="1135.494" y1="16688.3711" x2="1135.4941" y2="16410.4648" gradientTransform="matrix(1 0 0 1 0 -16148)">
		<stop  offset="0" style="stop-color:#BF301F"/>
		<stop  offset="0.3825" style="stop-color:#A92015"/>
		<stop  offset="1" style="stop-color:#7F0000"/>
	</linearGradient>
	<path id="XMLID_2_" class="st2" d="M1037.9,363.2l134.8-97.7c7.2-5.2,17.3-3.6,22.6,3.6c5.2,7.2,3.6,17.3-3.6,22.5l-41.8,30.3
		c-4.1,3-5,8.7-2,12.8c3,4.1,8.7,5,12.8,2l85.1-61.7c7.2-5.2,17.3-3.6,22.6,3.6c5.2,7.2,3.6,17.3-3.6,22.5l-120.9,87.6
		c-4.1,3-5,8.7-2,12.8c3,4.1,8.7,5,12.8,2l20.8-15.1c7.2-5.2,17.3-3.6,22.6,3.6c5.2,7.2,3.6,17.3-3.6,22.6l-169.3,122.7
		c-7.2,5.2-17.3,3.6-22.6-3.6c-5.2-7.2-3.6-17.3,3.6-22.6l73.9-53.6c4.1-3,5-8.7,2-12.8s-8.7-5-12.8-2l-40.9,29.6
		c-7.2,5.2-17.3,3.6-22.5-3.6c-5.2-7.2-3.6-17.3,3.6-22.6l91.4-66.2c4.1-3,5-8.7,2-12.8c-3-4.1-8.7-5-12.8-2l-33.2,24
		c-7.2,5.2-17.3,3.6-22.5-3.6C1029.1,378.5,1030.7,368.4,1037.9,363.2z"/>
</g>
</svg>
