<?xml version="1.0" encoding="utf-8"?>
<!-- Generator: Adobe Illustrator 19.0.0, SVG Export Plug-In . SVG Version: 6.00 Build 0)  -->
<svg version="1.1" id="Layer_1" xmlns="http://www.w3.org/2000/svg" xmlns:xlink="http://www.w3.org/1999/xlink" x="0px" y="0px"
	 viewBox="120 -20 1200 600" style="enable-background:new 120 -20 1200 600;" xml:space="preserve">
<style type="text/css">
	.st0{opacity:0.2;}
	.st1{fill:url(#XMLID_4_);}
	.st2{fill:url(#XMLID_5_);}
</style>
<g id="XMLID_67_" class="st0">
	
		<linearGradient id="XMLID_4_" gradientUnits="userSpaceOnUse" x1="1039.0551" y1="16690.002" x2="1039.0551" y2="16135.9883" gradientTransform="matrix(1 0 0 1 0 -16148)">
		<stop  offset="0" style="stop-color:#BF301F"/>
		<stop  offset="0.3825" style="stop-color:#A92015"/>
		<stop  offset="1" style="stop-color:#7F0000"/>
	</linearGradient>
	<path id="XMLID_68_" class="st1" d="M845.1,188.8L1113.7-5.9c14.4-10.4,34.5-7.2,44.9,7.2s7.2,34.5-7.2,44.9l-83.4,60.4
		c-8.1,5.9-10,17.3-4.1,25.4c5.9,8.1,17.3,10,25.4,4.1l169.6-122.9c14.4-10.4,34.5-7.2,44.9,7.2s7.2,34.5-7.2,44.9l-240.9,174.6
		c-8.1,5.9-10,17.3-4.1,25.4s17.3,10,25.4,4.1l41.5-30.1c14.4-10.4,34.5-7.2,45,7.2c10.4,14.4,7.2,34.5-7.2,44.9l-337,244.5
		c-14.4,10.4-34.5,7.2-44.9-7.2s-7.2-34.5,7.2-45L928.8,377c8.1-5.9,10-17.3,4.1-25.4s-17.3-10-25.4-4.1l-81.4,59
		c-14.4,10.4-34.5,7.2-44.9-7.2s-7.2-34.5,7.2-44.9l182.1-132c8.1-5.9,10-17.3,4.1-25.4s-17.3-10-25.4-4.1l-66.1,47.9
		c-14.4,10.4-34.5,7.2-44.9-7.2C827.5,219.4,830.7,199.2,845.1,188.8z"/>
</g>
<g id="XMLID_1_" class="st0">
	
		<linearGradient id="XMLID_5_" gradientUnits="userSpaceOnUse" x1="301.4051" y1="16722.0117" x2="301.4051" y2="16375.9785" gradientTransform="matrix(1 0 0 1 0 -16148)">
		<stop  offset="0" style="stop-color:#BF301F"/>
		<stop  offset="0.3825" style="stop-color:#A92015"/>
		<stop  offset="1" style="stop-color:#7F0000"/>
	</linearGradient>
	<path id="XMLID_2_" class="st2" d="M180.2,353.4L348,231.8c9-6.5,21.6-4.5,28.1,4.5s4.5,21.6-4.5,28.1l-52.1,37.7
		c-5.1,3.7-6.2,10.8-2.5,15.9s10.8,6.2,15.9,2.5l105.9-76.7c9-6.5,21.6-4.5,28.1,4.5c6.5,9,4.5,21.6-4.5,28.1L312,385.4
		c-5.1,3.7-6.2,10.8-2.5,15.9s10.8,6.2,15.9,2.5l25.9-18.8c9-6.5,21.6-4.5,28.1,4.5s4.5,21.5-4.5,28.1L164.1,570.2
		c-9,6.5-21.6,4.5-28.1-4.5s-4.5-21.6,4.5-28.1l92-66.6c5.1-3.7,6.2-10.8,2.5-15.9s-10.8-6.2-15.9-2.5l-50.9,36.9
		c-9,6.5-21.5,4.5-28.1-4.5c-6.5-9-4.5-21.6,4.5-28.1l113.7-82.4c5.1-3.7,6.2-10.8,2.5-15.9s-10.8-6.2-15.9-2.5L203.8,386
		c-9,6.5-21.5,4.5-28.1-4.5C169.2,372.5,171.2,360,180.2,353.4z"/>
</g>
</svg>
