<?xml version="1.0" encoding="utf-8"?>
<!-- Generator: Adobe Illustrator 19.0.0, SVG Export Plug-In . SVG Version: 6.00 Build 0)  -->
<svg version="1.1" id="Layer_1" xmlns="http://www.w3.org/2000/svg" xmlns:xlink="http://www.w3.org/1999/xlink" x="0px" y="0px"
	 viewBox="120 -20 1200 600" style="enable-background:new 120 -20 1200 600;" xml:space="preserve">
<style type="text/css">
	.st0{opacity:0.2;}
	.st1{fill:url(#XMLID_4_);}
	.st2{fill:url(#XMLID_5_);}
</style>
<g id="XMLID_67_" class="st0">
	
		<linearGradient id="XMLID_4_" gradientUnits="userSpaceOnUse" x1="46.7203" y1="16961.6758" x2="46.7203" y2="16156.5244" gradientTransform="matrix(1 0 0 1 0 -16148)">
		<stop  offset="0" style="stop-color:#BF301F"/>
		<stop  offset="0.3825" style="stop-color:#A92015"/>
		<stop  offset="1" style="stop-color:#7F0000"/>
	</linearGradient>
	<path id="XMLID_68_" class="st1" d="M-235.3,300.3L155.1,17.4C176,2.3,205.2,6.9,220.4,27.8s10.5,50.1-10.4,65.3L88.9,180.9
		c-11.8,8.6-14.5,25.1-5.9,36.9s25.1,14.5,36.9,5.9L366.3,45.1c20.9-15.2,50.1-10.5,65.3,10.4s10.5,50.1-10.4,65.3l-350,253.7
		c-11.8,8.6-14.5,25.1-5.9,36.9c8.6,11.8,25.1,14.5,36.9,5.9l60.4-43.7c20.9-15.2,50.2-10.5,65.3,10.4
		c15.2,20.9,10.5,50.1-10.4,65.3l-490.3,355.4c-20.9,15.2-50.2,10.5-65.3-10.4c-15.2-20.9-10.5-50.2,10.4-65.3l214-155.1
		c11.8-8.6,14.5-25.1,5.9-36.9c-8.6-11.8-25.1-14.5-36.9-5.9l-118.4,85.8c-20.9,15.2-50.1,10.5-65.3-10.4
		c-15.2-20.9-10.5-50.2,10.4-65.3l264.6-191.8c11.8-8.6,14.5-25.1,5.9-36.9s-25.1-14.5-36.9-5.9l-96,69.6
		c-20.9,15.2-50.1,10.5-65.3-10.4C-260.9,344.8-256.2,315.5-235.3,300.3z"/>
</g>
<g id="XMLID_1_" class="st0">
	
		<linearGradient id="XMLID_5_" gradientUnits="userSpaceOnUse" x1="1282.7701" y1="16651.6953" x2="1282.7701" y2="16229.6045" gradientTransform="matrix(1 0 0 1 0 -16148)">
		<stop  offset="0" style="stop-color:#BF301F"/>
		<stop  offset="0.3825" style="stop-color:#A92015"/>
		<stop  offset="1" style="stop-color:#7F0000"/>
	</linearGradient>
	<path id="XMLID_2_" class="st2" d="M1135.1,234.6l204.6-148.3c11-7.9,26.3-5.5,34.2,5.5c7.9,11,5.5,26.3-5.5,34.2l-63.5,46
		c-6.2,4.5-7.6,13.2-3.1,19.4c4.5,6.2,13.2,7.6,19.4,3.1l129.2-93.6c11-7.9,26.3-5.5,34.2,5.5c7.9,11,5.5,26.3-5.5,34.2l-183.5,133
		c-6.2,4.5-7.6,13.2-3.1,19.4s13.2,7.6,19.4,3.1l31.6-22.9c11-7.9,26.3-5.5,34.2,5.5c7.9,11,5.5,26.3-5.5,34.2l-257,186.2
		c-11,7.9-26.3,5.5-34.2-5.5c-7.9-11-5.5-26.3,5.5-34.2l112.2-81.3c6.2-4.5,7.6-13.2,3.1-19.4c-4.5-6.2-13.2-7.6-19.4-3.1l-62,45
		c-11,7.9-26.3,5.5-34.2-5.5c-7.9-11-5.5-26.3,5.5-34.2l138.7-100.5c6.2-4.5,7.6-13.2,3.1-19.4c-4.5-6.2-13.2-7.6-19.4-3.1
		l-50.3,36.5c-11,7.9-26.3,5.5-34.2-5.5C1121.7,257.8,1124.2,242.4,1135.1,234.6z"/>
</g>
</svg>
